<?xml version="1.0" encoding="UTF-8"?>
<!DOCTYPE svg PUBLIC '-//W3C//DTD SVG 1.0//EN'
    'http://www.w3.org/TR/2001/REC-SVG-20010904/DTD/svg10.dtd' >

<svg style="stroke-dasharray:none; shape-rendering:auto; font-family:'Dialog'; text-rendering:auto; fill-opacity:1; color-interpolation:auto; color-rendering:auto; font-size:12px; fill:black; stroke:black; image-rendering:auto; stroke-miterlimit:10; stroke-linecap:square; stroke-linejoin:miter; font-style:normal; stroke-width:1; stroke-dashoffset:0; font-weight:normal; stroke-opacity:1;"
     xmlns="http://www.w3.org/2000/svg" contentScriptType="text/ecmascript"
     preserveAspectRatio="xMidYMid meet"
     xmlns:xlink="http://www.w3.org/1999/xlink" zoomAndPan="magnify"
     version="1.0" contentStyleType="text/css">
    <!--Generated by the Batik Graphics2D SVG Generator-->
    <defs id="genericDefs"/>
    <g>
        <defs id="defs1">
            <clipPath clipPathUnits="userSpaceOnUse" id="clipPath1">
                <path d="M0 0 L490 0 L490 490 L0 490 L0 0 Z"/>
            </clipPath>
            <clipPath clipPathUnits="userSpaceOnUse" id="clipPath2">
                <path d="M3 41.0282 L3 448.9718 L487.998 448.9718 L487.998 41.0282 Z"/>
            </clipPath>
            <clipPath clipPathUnits="userSpaceOnUse" id="clipPath3">
                <path d="M1 39.0282 L1 450.9718 L489.998 450.9718 L489.998 39.0282 Z"/>
            </clipPath>
        </defs>
        <g transform="translate(6,5)"
           style="stroke-linecap:butt; fill:lime; text-rendering:geometricPrecision; image-rendering:optimizeQuality; color-rendering:optimizeQuality; font-family:'Times New Roman'; stroke-linejoin:round; shape-rendering:crispEdges; stroke:lime; color-interpolation:linearRGB;">
            <path d="M296.2885 397.7034 L296.2606 396.0101 L296.1907 394.5381 L296.0616 392.886 L295.8778 391.2279 L295.6414 389.5846 L295.3747 388.0685 L295.0508 386.508 L294.6649 384.9054 L294.2291 383.3211 L293.7281 381.707 L293.243 380.2995 L292.6482 378.7327 L291.9998 377.1799 L291.3269 375.7043 L290.6758 374.3834 L289.8525 372.8378 L289.114 371.5511 L288.2087 370.082 L287.3664 368.8076 L286.3991 367.439 L285.4368 366.1658 L284.3911 364.8699 L283.3941 363.7104 L282.2805 362.4935 L281.083 361.2682 L280.0077 360.2346 L278.813 359.1539 L277.5439 358.0774 L276.269 357.0646 L275.0056 356.1237 L273.5696 355.125 L272.2509 354.2698 L270.8147 353.4018 L269.4893 352.6562 L268.0158 351.8864 L266.6072 351.206 L265.1133 350.541 L263.6331 349.9373 L262.0639 349.3549 L260.5355 348.8427 L258.9565 348.3688 L257.3765 347.9492 L255.9134 347.6082 L254.2251 347.2702 L252.7063 347.0161 L251.0792 346.7954 L249.516 346.6331 L247.7754 346.5091 L246.2655 346.4495 L244.5505 346.4359 L242.9878 346.4733 L241.2807 346.5688 L239.811 346.6968 L238.1425 346.894 L236.5378 347.1364 L234.9425 347.429 L233.3632 347.7707 L231.8568 348.1456 L230.2419 348.6019 L228.7174 349.0857 L227.1302 349.6459 L225.7099 350.1978 L224.16 350.8564 L222.6966 351.5346 L221.2587 352.2567 L219.7818 353.0587 L218.4454 353.8397 L217.1019 354.6811 L215.6495 355.6577 L214.3638 356.5843 L213.0793 357.5724 L211.8057 358.6185 L210.6653 359.6156 L209.4826 360.7151 L208.3437 361.8425 L207.1651 363.0872 L206.1601 364.2178 L205.0426 365.5584 L204.0739 366.8002 L203.1533 368.0576 L202.2066 369.4402 L201.302 370.8588 L200.5198 372.1747 L199.7326 373.5969 L199.0083 375.0083 L198.2728 376.5627 L197.6787 377.927 L197.0457 379.5144 L196.4991 381.0251 L196.0048 382.5373 L195.5573 384.0653 L195.1501 385.6374 L194.7729 387.317 L194.4769 388.8672 L194.2316 390.4058 L194.0213 392.058 L193.8651 393.7124 L193.7706 395.201 L193.7147 396.967 L193.7148 398.4455 L193.769 400.1739 L193.8751 401.8208 L194.0146 403.2878 L194.2218 404.932 L194.4839 406.5795 L194.7979 408.2098 L195.136 409.7115 L195.5336 411.255 L195.9949 412.8375 L196.5052 414.3994 L197.0821 415.988 L197.6333 417.3709 L198.3017 418.9078 L199.0229 420.4283 L199.7649 421.8703 L200.4779 423.1589 L201.3735 424.6638 L202.172 425.9141 L203.1459 427.3387 L204.0476 428.5718 L205.0787 429.8931 L206.1001 431.1194 L207.2061 432.3643 L208.2569 433.4754 L209.4268 434.6382 L210.6811 435.8055 L211.8041 436.787 L213.0486 437.81 L214.3673 438.8252 L215.6887 439.7765 L216.9953 440.6566 L218.477 441.5862 L219.8347 442.378 L221.3104 443.1771 L222.6696 443.8592 L224.1779 444.5584 L225.6172 445.1714 L227.1408 445.7649 L228.6481 446.2979 L230.243 446.8053 L231.794 447.2446 L233.3936 447.6432 L234.9918 447.9876 L236.4694 448.259 L238.1718 448.5167 L239.701 448.6987 L241.3367 448.8421 L242.9058 448.9302 L244.6503 448.9718 L246.1613 448.9598 L247.8751 448.8923 L249.4342 448.7809 L251.1349 448.6047 L252.5969 448.4073 L254.2542 448.1313 L255.8456 447.8134 L257.4252 447.4455 L258.9866 447.0295 L260.4736 446.5838 L262.0651 446.0515 L263.5649 445.4961 L265.1238 444.8614 L266.5164 444.243 L268.0333 443.5117 L269.463 442.765 L270.8651 441.9757 L272.3023 441.1047 L273.6002 440.2613 L274.9024 439.3573 L276.3069 438.313 L277.5472 437.3267 L278.7835 436.2788 L280.0061 435.1737 L281.0981 434.1237 L282.2274 432.9694 L283.3116 431.7894 L284.4299 430.4903 L285.3802 429.3134 L286.433 427.9214 L287.3418 426.6352 L288.2018 425.3356 L289.0819 423.9098 L289.9183 422.45 L290.6373 421.0986 L291.3563 419.6407 L292.013 418.1966 L292.674 416.6091 L293.2028 415.2183 L293.76 413.6027 L294.2343 412.0679 L294.6565 410.5339 L295.0311 408.9864 L295.3635 407.3968 L295.6606 405.7013 L295.8829 404.1387 L296.055 402.5903 L296.1869 400.9301 L296.2646 399.2701 L296.2885 397.7034 L296.2885 245.4996 L296.2646 245.4996 L296.1869 245.4996 L296.055 245.4996 L295.8829 245.4996 L295.6606 245.4996 L295.3635 245.4996 L295.0311 245.4996 L294.6565 245.4996 L294.2343 245.4996 L293.76 245.4996 L293.2028 245.4996 L292.674 245.4996 L292.013 245.4996 L291.3563 245.4996 L290.6373 245.4996 L289.9183 245.4996 L289.0819 245.4996 L288.2018 245.4996 L287.3418 245.4996 L286.433 245.4996 L285.3802 245.4996 L284.4299 245.4996 L283.3116 245.4996 L282.2274 245.4996 L281.0981 245.4996 L280.0061 245.4996 L278.7835 245.4996 L277.5472 245.4996 L276.3069 245.4996 L274.9024 245.4996 L273.6002 245.4996 L272.3023 245.4996 L270.8651 245.4996 L269.463 245.4996 L268.0333 245.4996 L266.5164 245.4996 L265.1238 245.4996 L263.5649 245.4996 L262.0651 245.4996 L260.4736 245.4996 L258.9866 245.4996 L257.4252 245.4996 L255.8456 245.4996 L254.2542 245.4996 L252.5969 245.4996 L251.1349 245.4996 L249.4342 245.4996 L247.8751 245.4996 L246.1613 245.4996 L244.6503 245.4996 L242.9058 245.4996 L241.3367 245.4996 L239.701 245.4996 L238.1718 245.4996 L236.4694 245.4996 L234.9918 245.4996 L233.3936 245.4996 L231.794 245.4996 L230.243 245.4996 L228.6481 245.4996 L227.1408 245.4996 L225.6172 245.4996 L224.1779 245.4996 L222.6696 245.4996 L221.3104 245.4996 L219.8347 245.4996 L218.477 245.4996 L216.9953 245.4996 L215.6887 245.4996 L214.3673 245.4996 L213.0486 245.4996 L211.8041 245.4996 L210.6811 245.4996 L209.4268 245.4996 L208.2569 245.4996 L207.2061 245.4996 L206.1001 245.4996 L205.0787 245.4996 L204.0476 245.4996 L203.1459 245.4996 L202.172 245.4996 L201.3735 245.4996 L200.4779 245.4996 L199.7649 245.4996 L199.0229 245.4996 L198.3017 245.4996 L197.6333 245.4996 L197.0821 245.4996 L196.5052 245.4996 L195.9949 245.4996 L195.5336 245.4996 L195.136 245.4996 L194.7979 245.4996 L194.4839 245.4996 L194.2218 245.4996 L194.0146 245.4996 L193.8751 245.4996 L193.769 245.4996 L193.7148 245.4996 L193.7147 245.4996 L193.7706 245.4996 L193.8651 245.4996 L194.0213 245.4996 L194.2316 245.4996 L194.4769 245.4996 L194.7729 245.4996 L195.1501 245.4996 L195.5573 245.4996 L196.0048 245.4996 L196.4991 245.4996 L197.0457 245.4996 L197.6787 245.4996 L198.2728 245.4996 L199.0083 245.4996 L199.7326 245.4996 L200.5198 245.4996 L201.302 245.4996 L202.2066 245.4996 L203.1533 245.4996 L204.0739 245.4996 L205.0426 245.4996 L206.1601 245.4996 L207.1651 245.4996 L208.3437 245.4996 L209.4826 245.4996 L210.6653 245.4996 L211.8057 245.4996 L213.0793 245.4996 L214.3638 245.4996 L215.6495 245.4996 L217.1019 245.4996 L218.4454 245.4996 L219.7818 245.4996 L221.2587 245.4996 L222.6966 245.4996 L224.16 245.4996 L225.7099 245.4996 L227.1302 245.4996 L228.7174 245.4996 L230.2419 245.4996 L231.8568 245.4996 L233.3632 245.4996 L234.9425 245.4996 L236.5378 245.4996 L238.1425 245.4996 L239.811 245.4996 L241.2807 245.4996 L242.9878 245.4996 L244.5505 245.4996 L246.2655 245.4996 L247.7754 245.4996 L249.516 245.4996 L251.0792 245.4996 L252.7063 245.4996 L254.2251 245.4996 L255.9134 245.4996 L257.3765 245.4996 L258.9565 245.4996 L260.5355 245.4996 L262.0639 245.4996 L263.6331 245.4996 L265.1133 245.4996 L266.6072 245.4996 L268.0158 245.4996 L269.4893 245.4996 L270.8147 245.4996 L272.2509 245.4996 L273.5696 245.4996 L275.0056 245.4996 L276.269 245.4996 L277.5439 245.4996 L278.813 245.4996 L280.0077 245.4996 L281.083 245.4996 L282.2805 245.4996 L283.3941 245.4996 L284.3911 245.4996 L285.4368 245.4996 L286.3991 245.4996 L287.3664 245.4996 L288.2087 245.4996 L289.114 245.4996 L289.8525 245.4996 L290.6758 245.4996 L291.3269 245.4996 L291.9998 245.4996 L292.6482 245.4996 L293.243 245.4996 L293.7281 245.4996 L294.2291 245.4996 L294.6649 245.4996 L295.0508 245.4996 L295.3747 245.4996 L295.6414 245.4996 L295.8778 245.4996 L296.0616 245.4996 L296.1907 245.4996 L296.2606 245.4996 L296.2885 245.4996 L296.2885 397.7034 L296.2885 397.7034 L296.2885 397.7034 Z"
                  style="stroke:none; clip-path:url(#clipPath2);"/>
        </g>
        <g transform="translate(6,5)"
           style="stroke-linecap:butt; fill:red; text-rendering:geometricPrecision; image-rendering:optimizeQuality; color-rendering:optimizeQuality; font-family:'Times New Roman'; stroke-linejoin:round; shape-rendering:crispEdges; stroke:red; color-interpolation:linearRGB;">
            <path d="M296.2885 245.4996 L296.2606 245.4996 L296.1907 245.4996 L296.0616 245.4996 L295.8778 245.4996 L295.6414 245.4996 L295.3747 245.4996 L295.0508 245.4996 L294.6649 245.4996 L294.2291 245.4996 L293.7281 245.4996 L293.243 245.4996 L292.6482 245.4996 L291.9998 245.4996 L291.3269 245.4996 L290.6758 245.4996 L289.8525 245.4996 L289.114 245.4996 L288.2087 245.4996 L287.3664 245.4996 L286.3991 245.4996 L285.4368 245.4996 L284.3911 245.4996 L283.3941 245.4996 L282.2805 245.4996 L281.083 245.4996 L280.0077 245.4996 L278.813 245.4996 L277.5439 245.4996 L276.269 245.4996 L275.0056 245.4996 L273.5696 245.4996 L272.2509 245.4996 L270.8147 245.4996 L269.4893 245.4996 L268.0158 245.4996 L266.6072 245.4996 L265.1133 245.4996 L263.6331 245.4996 L262.0639 245.4996 L260.5355 245.4996 L258.9565 245.4996 L257.3765 245.4996 L255.9134 245.4996 L254.2251 245.4996 L252.7063 245.4996 L251.0792 245.4996 L249.516 245.4996 L247.7754 245.4996 L246.2655 245.4996 L244.5505 245.4996 L242.9878 245.4996 L241.2807 245.4996 L239.811 245.4996 L238.1425 245.4996 L236.5378 245.4996 L234.9425 245.4996 L233.3632 245.4996 L231.8568 245.4996 L230.2419 245.4996 L228.7174 245.4996 L227.1302 245.4996 L225.7099 245.4996 L224.16 245.4996 L222.6966 245.4996 L221.2587 245.4996 L219.7818 245.4996 L218.4454 245.4996 L217.1019 245.4996 L215.6495 245.4996 L214.3638 245.4996 L213.0793 245.4996 L211.8057 245.4996 L210.6653 245.4996 L209.4826 245.4996 L208.3437 245.4996 L207.1651 245.4996 L206.1601 245.4996 L205.0426 245.4996 L204.0739 245.4996 L203.1533 245.4996 L202.2066 245.4996 L201.302 245.4996 L200.5198 245.4996 L199.7326 245.4996 L199.0083 245.4996 L198.2728 245.4996 L197.6787 245.4996 L197.0457 245.4996 L196.4991 245.4996 L196.0048 245.4996 L195.5573 245.4996 L195.1501 245.4996 L194.7729 245.4996 L194.4769 245.4996 L194.2316 245.4996 L194.0213 245.4996 L193.8651 245.4996 L193.7706 245.4996 L193.7147 245.4996 L193.7148 245.4996 L193.769 245.4996 L193.8751 245.4996 L194.0146 245.4996 L194.2218 245.4996 L194.4839 245.4996 L194.7979 245.4996 L195.136 245.4996 L195.5336 245.4996 L195.9949 245.4996 L196.5052 245.4996 L197.0821 245.4996 L197.6333 245.4996 L198.3017 245.4996 L199.0229 245.4996 L199.7649 245.4996 L200.4779 245.4996 L201.3735 245.4996 L202.172 245.4996 L203.1459 245.4996 L204.0476 245.4996 L205.0787 245.4996 L206.1001 245.4996 L207.2061 245.4996 L208.2569 245.4996 L209.4268 245.4996 L210.6811 245.4996 L211.8041 245.4996 L213.0486 245.4996 L214.3673 245.4996 L215.6887 245.4996 L216.9953 245.4996 L218.477 245.4996 L219.8347 245.4996 L221.3104 245.4996 L222.6696 245.4996 L224.1779 245.4996 L225.6172 245.4996 L227.1408 245.4996 L228.6481 245.4996 L230.243 245.4996 L231.794 245.4996 L233.3936 245.4996 L234.9918 245.4996 L236.4694 245.4996 L238.1718 245.4996 L239.701 245.4996 L241.3367 245.4996 L242.9058 245.4996 L244.6503 245.4996 L246.1613 245.4996 L247.8751 245.4996 L249.4342 245.4996 L251.1349 245.4996 L252.5969 245.4996 L254.2542 245.4996 L255.8456 245.4996 L257.4252 245.4996 L258.9866 245.4996 L260.4736 245.4996 L262.0651 245.4996 L263.5649 245.4996 L265.1238 245.4996 L266.5164 245.4996 L268.0333 245.4996 L269.463 245.4996 L270.8651 245.4996 L272.3023 245.4996 L273.6002 245.4996 L274.9024 245.4996 L276.3069 245.4996 L277.5472 245.4996 L278.7835 245.4996 L280.0061 245.4996 L281.0981 245.4996 L282.2274 245.4996 L283.3116 245.4996 L284.4299 245.4996 L285.3802 245.4996 L286.433 245.4996 L287.3418 245.4996 L288.2018 245.4996 L289.0819 245.4996 L289.9183 245.4996 L290.6373 245.4996 L291.3563 245.4996 L292.013 245.4996 L292.674 245.4996 L293.2028 245.4996 L293.76 245.4996 L294.2343 245.4996 L294.6565 245.4996 L295.0311 245.4996 L295.3635 245.4996 L295.6606 245.4996 L295.8829 245.4996 L296.055 245.4996 L296.1869 245.4996 L296.2646 245.4996 L296.2885 245.4996 L296.2885 93.2958 L296.2646 94.8624 L296.1869 96.5225 L296.055 98.1827 L295.8829 99.7311 L295.6606 101.2937 L295.3635 102.9892 L295.0311 104.5788 L294.6565 106.1263 L294.2343 107.6602 L293.76 109.1951 L293.2028 110.8106 L292.674 112.2015 L292.013 113.789 L291.3563 115.2331 L290.6373 116.691 L289.9183 118.0424 L289.0819 119.5022 L288.2018 120.928 L287.3418 122.2276 L286.433 123.5138 L285.3802 124.9058 L284.4299 126.0827 L283.3116 127.3818 L282.2274 128.5618 L281.0981 129.7161 L280.0061 130.7661 L278.7835 131.8712 L277.5472 132.9191 L276.3069 133.9054 L274.9024 134.9497 L273.6002 135.8537 L272.3023 136.6971 L270.8651 137.5681 L269.463 138.3574 L268.0333 139.1041 L266.5164 139.8353 L265.1238 140.4538 L263.5649 141.0885 L262.0651 141.6439 L260.4736 142.1761 L258.9866 142.6219 L257.4252 143.0379 L255.8456 143.4058 L254.2542 143.7237 L252.5969 143.9997 L251.1349 144.1971 L249.4342 144.3733 L247.8751 144.4847 L246.1613 144.5522 L244.6503 144.5642 L242.9058 144.5226 L241.3367 144.4345 L239.701 144.2911 L238.1718 144.1091 L236.4694 143.8514 L234.9918 143.58 L233.3936 143.2356 L231.794 142.837 L230.243 142.3977 L228.6481 141.8903 L227.1408 141.3572 L225.6172 140.7637 L224.1779 140.1508 L222.6696 139.4515 L221.3104 138.7695 L219.8347 137.9704 L218.477 137.1786 L216.9953 136.2489 L215.6887 135.3689 L214.3673 134.4176 L213.0486 133.4023 L211.8041 132.3794 L210.6811 131.3978 L209.4268 130.2306 L208.2569 129.0678 L207.2061 127.9567 L206.1001 126.7118 L205.0787 125.4855 L204.0476 124.1642 L203.1459 122.9312 L202.172 121.5065 L201.3735 120.2562 L200.4779 118.7513 L199.7649 117.4627 L199.0229 116.0206 L198.3017 114.5002 L197.6333 112.9633 L197.0821 111.5804 L196.5052 109.9918 L195.9949 108.4299 L195.5336 106.8474 L195.136 105.3039 L194.7979 103.8022 L194.4839 102.1718 L194.2218 100.5244 L194.0146 98.8802 L193.8751 97.4132 L193.769 95.7662 L193.7148 94.0379 L193.7147 92.5594 L193.7706 90.7934 L193.8651 89.3048 L194.0213 87.6503 L194.2316 85.9982 L194.4769 84.4597 L194.7729 82.9093 L195.1501 81.2298 L195.5573 79.6577 L196.0048 78.1297 L196.4991 76.6174 L197.0457 75.1068 L197.6787 73.5194 L198.2728 72.1551 L199.0083 70.6007 L199.7326 69.1893 L200.5198 67.7671 L201.302 66.4512 L202.2066 65.0327 L203.1533 63.65 L204.0739 62.3926 L205.0426 61.1508 L206.1601 59.8102 L207.1651 58.6796 L208.3437 57.4349 L209.4826 56.3075 L210.6653 55.208 L211.8057 54.2108 L213.0793 53.1648 L214.3638 52.1766 L215.6495 51.2501 L217.1019 50.2734 L218.4454 49.4321 L219.7818 48.651 L221.2587 47.8491 L222.6966 47.127 L224.16 46.4488 L225.7099 45.7902 L227.1302 45.2383 L228.7174 44.6781 L230.2419 44.1942 L231.8568 43.7379 L233.3632 43.3631 L234.9425 43.0214 L236.5378 42.7287 L238.1425 42.4865 L239.811 42.2892 L241.2807 42.1612 L242.9878 42.0657 L244.5505 42.0282 L246.2655 42.0419 L247.7754 42.1014 L249.516 42.2255 L251.0792 42.3878 L252.7063 42.6084 L254.2251 42.8626 L255.9134 43.2006 L257.3765 43.5416 L258.9565 43.9612 L260.5355 44.4351 L262.0639 44.9473 L263.6331 45.5296 L265.1133 46.1334 L266.6072 46.7983 L268.0158 47.4787 L269.4893 48.2486 L270.8147 48.9942 L272.2509 49.8622 L273.5696 50.7174 L275.0056 51.7161 L276.269 52.657 L277.5439 53.6698 L278.813 54.7463 L280.0077 55.827 L281.083 56.8606 L282.2805 58.0859 L283.3941 59.3027 L284.3911 60.4623 L285.4368 61.7582 L286.3991 63.0314 L287.3664 64.4 L288.2087 65.6744 L289.114 67.1435 L289.8525 68.4302 L290.6758 69.9757 L291.3269 71.2967 L291.9998 72.7722 L292.6482 74.3251 L293.243 75.8919 L293.7281 77.2993 L294.2291 78.9135 L294.6649 80.4978 L295.0508 82.1003 L295.3747 83.6609 L295.6414 85.177 L295.8778 86.8203 L296.0616 88.4783 L296.1907 90.1305 L296.2606 91.6024 L296.2885 93.2958 L296.2885 245.4996 L296.2885 245.4996 L296.2885 245.4996 Z"
                  style="stroke:none; clip-path:url(#clipPath2);"/>
        </g>
        <g transform="translate(6,5)"
           style="stroke-linecap:butt; fill:blue; text-rendering:geometricPrecision; image-rendering:optimizeQuality; color-rendering:optimizeQuality; font-family:'Times New Roman'; stroke-linejoin:round; shape-rendering:crispEdges; stroke:blue; color-interpolation:linearRGB;">
            <path d="M244.999 245.4996 L244.9798 245.4996 L244.9318 245.4996 L244.8428 245.4996 L244.7156 245.4996 L244.551 245.4996 L244.364 245.4996 L244.1351 245.4996 L243.8598 245.4996 L243.5453 245.4996 L243.1793 245.4996 L242.8201 245.4996 L242.3733 245.4996 L241.8781 245.4996 L241.3553 245.4996 L240.8405 245.4996 L240.177 245.4996 L239.5699 245.4996 L238.8097 245.4996 L238.0866 245.4996 L237.2371 245.4996 L236.3716 245.4996 L235.4074 245.4996 L234.465 245.4996 L233.3852 245.4996 L232.1914 245.4996 L231.0903 245.4996 L229.834 245.4996 L228.4606 245.4996 L227.0403 245.4996 L225.5915 245.4996 L223.8942 245.4996 L222.2871 245.4996 L220.483 245.4996 L218.7675 245.4996 L216.8019 245.4996 L214.8645 245.4996 L212.746 245.4996 L210.5806 245.4996 L208.2121 245.4996 L205.831 245.4996 L203.2928 245.4996 L200.6714 245.4996 L198.1699 245.4996 L195.193 245.4996 L192.4301 245.4996 L189.3797 245.4996 L186.3588 245.4996 L182.8886 245.4996 L179.7856 245.4996 L176.1543 245.4996 L172.7447 245.4996 L168.9075 245.4996 L165.508 245.4996 L161.5388 245.4996 L157.6089 245.4996 L153.5908 245.4996 L149.5008 245.4996 L145.4941 245.4996 L141.0819 245.4996 L136.8037 245.4996 L132.23 245.4996 L128.0324 245.4996 L123.3367 245.4996 L118.7903 245.4996 L114.2148 245.4996 L109.4012 245.4996 L104.9445 245.4996 L100.3652 245.4996 L95.3017 245.4996 L90.72 245.4996 L86.0473 245.4996 L81.3188 245.4996 L77.0029 245.4996 L72.4444 245.4996 L67.9741 245.4996 L63.2632 245.4996 L59.1773 245.4996 L54.5585 245.4996 L50.4894 245.4996 L46.566 245.4996 L42.4728 245.4996 L38.5059 245.4996 L35.0313 245.4996 L31.4922 245.4996 L28.198 245.4996 L24.816 245.4996 L22.0569 245.4996 L19.0892 245.4996 L16.5042 245.4996 L14.1478 245.4996 L11.9994 245.4996 L10.0315 245.4996 L8.1987 245.4996 L6.7527 245.4996 L5.5498 245.4996 L4.5147 245.4996 L3.7436 245.4996 L3.2764 245.4996 L3 245.4996 L3.0002 245.4996 L3.0004 248.4516 L3.2687 255.3232 L3.7931 261.8592 L4.4815 267.6646 L5.5012 274.1456 L6.7869 280.6046 L8.3203 286.9538 L9.9637 292.7579 L11.8848 298.6723 L14.1003 304.6747 L16.533 310.5304 L19.2605 316.4084 L21.845 321.4545 L24.9496 326.9779 L28.2651 332.3463 L31.638 337.3422 L34.8437 341.7212 L38.8211 346.7248 L42.322 350.7847 L46.5342 355.2948 L50.3782 359.0912 L54.7088 363.0405 L58.9315 366.5873 L63.4286 370.0624 L67.63 373.0485 L72.2276 376.0477 L77.0633 378.9183 L81.3128 381.2137 L85.9342 383.4805 L90.7325 385.5917 L95.44 387.4318 L99.9976 389.002 L105.0508 390.5063 L109.5756 391.6464 L114.3812 392.6462 L118.7053 393.3619 L123.3916 393.9418 L127.7549 394.2986 L132.2612 394.4807 L136.6064 394.4753 L141.0851 394.2812 L145.3249 393.9177 L149.5807 393.3731 L153.7166 392.6665 L157.439 391.8765 L161.6095 390.8119 L165.2499 389.7215 L169.0351 388.4216 L172.5629 387.0506 L176.3688 385.39 L179.5683 383.8404 L183.0903 381.9625 L186.1982 380.1467 L189.4857 378.0531 L192.228 376.1616 L195.245 373.9172 L198.0523 371.6637 L200.7535 369.333 L203.3419 366.9382 L205.733 364.5737 L208.2139 361.9523 L210.4793 359.3955 L212.761 356.6479 L214.7375 354.1143 L216.8256 351.2675 L218.7329 348.4985 L220.5473 345.6989 L222.3507 342.7386 L223.9309 339.9824 L225.4714 337.1333 L227.0831 333.9598 L228.4643 331.0641 L229.8025 328.0833 L231.0887 325.0341 L232.2067 322.2176 L233.3329 319.2027 L234.386 316.1996 L235.4436 312.977 L236.32 310.1256 L237.2672 306.8287 L238.0653 303.8481 L238.8038 300.8951 L239.5432 297.7163 L240.2306 294.5222 L240.8098 291.6144 L241.3783 288.5256 L241.8883 285.5107 L242.3929 282.2426 L242.7901 279.415 L243.2027 276.1682 L243.5491 273.1167 L243.8537 270.0956 L244.1211 267.073 L244.3561 263.9911 L244.5644 260.7254 L244.7191 257.7319 L244.8382 254.7775 L244.9291 251.6199 L244.9825 248.4696 L244.999 245.4996 L244.999 245.4996 L244.999 245.4996 L244.999 245.4996 L244.9825 245.4996 L244.9291 245.4996 L244.8382 245.4996 L244.7191 245.4996 L244.5644 245.4996 L244.3561 245.4996 L244.1211 245.4996 L243.8537 245.4996 L243.5491 245.4996 L243.2027 245.4996 L242.7901 245.4996 L242.3929 245.4996 L241.8883 245.4996 L241.3783 245.4996 L240.8098 245.4996 L240.2306 245.4996 L239.5432 245.4996 L238.8038 245.4996 L238.0653 245.4996 L237.2672 245.4996 L236.32 245.4996 L235.4436 245.4996 L234.386 245.4996 L233.3329 245.4996 L232.2067 245.4996 L231.0887 245.4996 L229.8025 245.4996 L228.4643 245.4996 L227.0831 245.4996 L225.4714 245.4996 L223.9309 245.4996 L222.3507 245.4996 L220.5473 245.4996 L218.7329 245.4996 L216.8256 245.4996 L214.7375 245.4996 L212.761 245.4996 L210.4793 245.4996 L208.2139 245.4996 L205.733 245.4996 L203.3419 245.4996 L200.7535 245.4996 L198.0523 245.4996 L195.245 245.4996 L192.228 245.4996 L189.4857 245.4996 L186.1982 245.4996 L183.0903 245.4996 L179.5683 245.4996 L176.3688 245.4996 L172.5629 245.4996 L169.0351 245.4996 L165.2499 245.4996 L161.6095 245.4996 L157.439 245.4996 L153.7166 245.4996 L149.5807 245.4996 L145.3249 245.4996 L141.0851 245.4996 L136.6064 245.4996 L132.2612 245.4996 L127.7549 245.4996 L123.3916 245.4996 L118.7053 245.4996 L114.3812 245.4996 L109.5756 245.4996 L105.0508 245.4996 L99.9976 245.4996 L95.44 245.4996 L90.7325 245.4996 L85.9342 245.4996 L81.3128 245.4996 L77.0633 245.4996 L72.2276 245.4996 L67.63 245.4996 L63.4286 245.4996 L58.9315 245.4996 L54.7088 245.4996 L50.3782 245.4996 L46.5342 245.4996 L42.322 245.4996 L38.8211 245.4996 L34.8437 245.4996 L31.638 245.4996 L28.2651 245.4996 L24.9496 245.4996 L21.845 245.4996 L19.2605 245.4996 L16.533 245.4996 L14.1003 245.4996 L11.8848 245.4996 L9.9637 245.4996 L8.3203 245.4996 L6.7869 245.4996 L5.5012 245.4996 L4.4815 245.4996 L3.7931 245.4996 L3.2687 245.4996 L3.0004 245.4996 L3.0002 245.4996 L3 242.5701 L3.2764 235.549 L3.7436 229.641 L4.5147 223.0933 L5.5498 216.5823 L6.7527 210.5506 L8.1987 204.5107 L10.0315 198.0183 L11.9994 191.9972 L14.1478 186.2036 L16.5042 180.5344 L19.0892 174.942 L22.0569 169.1502 L24.816 164.2484 L28.198 158.7569 L31.4922 153.8644 L35.0313 149.0318 L38.5059 144.6552 L42.4728 140.0462 L46.566 135.6718 L50.4894 131.8024 L54.5585 128.0903 L59.1773 124.2142 L63.2632 121.0594 L67.9741 117.7167 L72.4444 114.8167 L77.0029 112.1151 L81.3188 109.7824 L86.0473 107.4662 L90.72 105.4127 L95.3017 103.6183 L100.3652 101.8794 L104.9445 100.522 L109.4012 99.3932 L114.2148 98.384 L118.7903 97.6249 L123.3367 97.063 L128.0324 96.684 L132.23 96.5192 L136.8037 96.5284 L141.0819 96.7179 L145.4941 97.0997 L149.5008 97.6142 L153.5908 98.3086 L157.6089 99.1624 L161.5388 100.1677 L165.508 101.3609 L168.9075 102.5309 L172.7447 104.0236 L176.1543 105.5104 L179.7856 107.2694 L182.8886 108.9241 L186.3588 110.9506 L189.3797 112.8757 L192.4301 114.9825 L195.193 117.0418 L198.1699 119.4337 L200.6714 121.5929 L203.2928 124.0141 L205.831 126.5257 L208.2121 129.045 L210.5806 131.722 L212.746 134.3326 L214.8645 137.0527 L216.8019 139.6984 L218.7675 142.5526 L220.483 145.1982 L222.2871 148.1531 L223.8942 150.9508 L225.5915 154.0954 L227.0403 156.9524 L228.4606 159.9272 L229.834 162.9885 L231.0903 165.969 L232.1914 168.742 L233.3852 171.9411 L234.465 175.0328 L235.4074 177.908 L236.3716 181.047 L237.2371 184.0619 L238.0866 187.2336 L238.8097 190.1284 L239.5699 193.4022 L240.177 196.2186 L240.8405 199.5451 L241.3553 202.3435 L241.8781 205.4255 L242.3733 208.6237 L242.8201 211.8084 L243.1793 214.6368 L243.5453 217.8472 L243.8598 220.9673 L244.1351 224.0965 L244.364 227.1212 L244.551 230.0415 L244.7156 233.1906 L244.8428 236.3539 L244.9318 239.4958 L244.9798 242.2893 L244.999 245.4996 L244.999 245.4996 L244.999 245.4996 L244.999 245.4996 Z"
                  style="stroke:none; clip-path:url(#clipPath2);"/>
        </g>
        <g transform="translate(6,5)"
           style="stroke-linecap:butt; fill:blue; text-rendering:geometricPrecision; image-rendering:optimizeQuality; color-rendering:optimizeQuality; font-family:'Times New Roman'; stroke-linejoin:round; shape-rendering:crispEdges; stroke:blue; color-interpolation:linearRGB;">
            <path d="M244.999 245.4996 L245.0182 248.7099 L245.0662 251.5034 L245.1552 254.6453 L245.2824 257.8087 L245.447 260.9577 L245.6339 263.878 L245.8629 266.9027 L246.1382 270.0319 L246.4526 273.152 L246.8186 276.3624 L247.1779 279.1908 L247.6246 282.3755 L248.1199 285.5737 L248.6427 288.6557 L249.1575 291.4541 L249.821 294.7806 L250.4281 297.597 L251.1883 300.8708 L251.9113 303.7656 L252.7608 306.9373 L253.6264 309.9523 L254.5906 313.0912 L255.533 315.9664 L256.6128 319.0581 L257.8066 322.2572 L258.9077 325.0302 L260.1639 328.0107 L261.5373 331.072 L262.9576 334.0468 L264.4065 336.9038 L266.1038 340.0484 L267.7108 342.8461 L269.5149 345.801 L271.2304 348.4467 L273.196 351.3008 L275.1335 353.9465 L277.252 356.6666 L279.4173 359.2773 L281.7858 361.9542 L284.167 364.4735 L286.7051 366.9851 L289.3266 369.4063 L291.828 371.5656 L294.805 373.9575 L297.5678 376.0167 L300.6183 378.1235 L303.6392 380.0487 L307.1094 382.0751 L310.2123 383.7298 L313.8436 385.4888 L317.2532 386.9756 L321.0904 388.4683 L324.4899 389.6383 L328.4591 390.8315 L332.389 391.8369 L336.4071 392.6906 L340.4971 393.385 L344.5039 393.8996 L348.9161 394.2814 L353.1943 394.4708 L357.7679 394.48 L361.9655 394.3152 L366.6612 393.9362 L371.2077 393.3743 L375.7832 392.6152 L380.5967 391.606 L385.0535 390.4772 L389.6328 389.1198 L394.6963 387.3809 L399.2779 385.5865 L403.9507 383.5331 L408.6791 381.2168 L412.9951 378.8842 L417.5535 376.1826 L422.0239 373.2825 L426.7348 369.9398 L430.8206 366.785 L435.4394 362.9089 L439.5086 359.1968 L443.4319 355.3274 L447.5252 350.953 L451.4921 346.3441 L454.9667 341.9674 L458.5058 337.1349 L461.8 332.2423 L465.182 326.7508 L467.941 321.849 L470.9087 316.0573 L473.4937 310.4649 L475.8502 304.7956 L477.9985 299.002 L479.9664 292.9809 L481.7993 286.4885 L483.2452 280.4487 L484.4482 274.4169 L485.4833 267.9059 L486.2544 261.3583 L486.7216 255.4503 L486.998 248.4291 L486.9977 245.4996 L486.9976 245.4996 L486.7292 245.4996 L486.2048 245.4996 L485.5165 245.4996 L484.4967 245.4996 L483.211 245.4996 L481.6776 245.4996 L480.0343 245.4996 L478.1132 245.4996 L475.8976 245.4996 L473.465 245.4996 L470.7374 245.4996 L468.153 245.4996 L465.0484 245.4996 L461.7328 245.4996 L458.3599 245.4996 L455.1543 245.4996 L451.1768 245.4996 L447.676 245.4996 L443.4637 245.4996 L439.6198 245.4996 L435.2892 245.4996 L431.0664 245.4996 L426.5694 245.4996 L422.368 245.4996 L417.7704 245.4996 L412.9346 245.4996 L408.6852 245.4996 L404.0638 245.4996 L399.2654 245.4996 L394.558 245.4996 L390.0004 245.4996 L384.9472 245.4996 L380.4223 245.4996 L375.6168 245.4996 L371.2927 245.4996 L366.6064 245.4996 L362.243 245.4996 L357.7368 245.4996 L353.3915 245.4996 L348.9129 245.4996 L344.673 245.4996 L340.4172 245.4996 L336.2814 245.4996 L332.559 245.4996 L328.3885 245.4996 L324.7481 245.4996 L320.9628 245.4996 L317.435 245.4996 L313.6292 245.4996 L310.4297 245.4996 L306.9076 245.4996 L303.7997 245.4996 L300.5123 245.4996 L297.7699 245.4996 L294.753 245.4996 L291.9456 245.4996 L289.2445 245.4996 L286.656 245.4996 L284.265 245.4996 L281.7841 245.4996 L279.5186 245.4996 L277.2369 245.4996 L275.2604 245.4996 L273.1723 245.4996 L271.265 245.4996 L269.4507 245.4996 L267.6473 245.4996 L266.067 245.4996 L264.5266 245.4996 L262.9148 245.4996 L261.5337 245.4996 L260.1955 245.4996 L258.9093 245.4996 L257.7913 245.4996 L256.665 245.4996 L255.612 245.4996 L254.5543 245.4996 L253.6779 245.4996 L252.7307 245.4996 L251.9327 245.4996 L251.1942 245.4996 L250.4548 245.4996 L249.7673 245.4996 L249.1882 245.4996 L248.6197 245.4996 L248.1096 245.4996 L247.6051 245.4996 L247.2079 245.4996 L246.7953 245.4996 L246.4488 245.4996 L246.1442 245.4996 L245.8768 245.4996 L245.6418 245.4996 L245.4335 245.4996 L245.2789 245.4996 L245.1597 245.4996 L245.0688 245.4996 L245.0154 245.4996 L244.999 245.4996 L244.999 245.4996 L244.999 245.4996 L244.999 245.4996 L245.0154 242.5296 L245.0688 239.3793 L245.1597 236.2217 L245.2789 233.2674 L245.4335 230.2738 L245.6418 227.0081 L245.8768 223.9262 L246.1442 220.9037 L246.4488 217.8826 L246.7953 214.8311 L247.2079 211.5842 L247.6051 208.7567 L248.1096 205.4885 L248.6197 202.4737 L249.1882 199.3848 L249.7673 196.4771 L250.4548 193.2829 L251.1942 190.1041 L251.9327 187.1511 L252.7307 184.1705 L253.6779 180.8736 L254.5543 178.0223 L255.612 174.7996 L256.665 171.7965 L257.7913 168.7816 L258.9093 165.9651 L260.1955 162.916 L261.5337 159.9352 L262.9148 157.0394 L264.5266 153.8659 L266.067 151.0168 L267.6473 148.2607 L269.4507 145.3003 L271.265 142.5007 L273.1723 139.7317 L275.2604 136.8849 L277.2369 134.3514 L279.5186 131.6037 L281.7841 129.0469 L284.265 126.4256 L286.656 124.0611 L289.2445 121.6662 L291.9456 119.3356 L294.753 117.082 L297.7699 114.8376 L300.5123 112.9461 L303.7997 110.8525 L306.9076 109.0367 L310.4297 107.1588 L313.6292 105.6092 L317.435 103.9486 L320.9628 102.5776 L324.7481 101.2777 L328.3885 100.1874 L332.559 99.1227 L336.2814 98.3327 L340.4172 97.6261 L344.673 97.0815 L348.9129 96.718 L353.3915 96.524 L357.7368 96.5186 L362.243 96.7007 L366.6064 97.0574 L371.2927 97.6373 L375.6168 98.353 L380.4223 99.3529 L384.9472 100.4929 L390.0004 101.9972 L394.558 103.5674 L399.2654 105.4075 L404.0638 107.5187 L408.6852 109.7855 L412.9346 112.0809 L417.7704 114.9515 L422.368 117.9507 L426.5694 120.9368 L431.0664 124.412 L435.2892 127.9587 L439.6198 131.908 L443.4637 135.7045 L447.676 140.2145 L451.1768 144.2744 L455.1543 149.278 L458.3599 153.657 L461.7328 158.6529 L465.0484 164.0214 L468.153 169.5447 L470.7374 174.5908 L473.465 180.4688 L475.8976 186.3245 L478.1132 192.3269 L480.0343 198.2413 L481.6776 204.0454 L483.211 210.3947 L484.4967 216.8537 L485.5165 223.3347 L486.2048 229.14 L486.7292 235.676 L486.9976 242.5476 L486.9977 245.4996 L486.998 245.4996 L486.7216 245.4996 L486.2544 245.4996 L485.4833 245.4996 L484.4482 245.4996 L483.2452 245.4996 L481.7993 245.4996 L479.9664 245.4996 L477.9985 245.4996 L475.8502 245.4996 L473.4937 245.4996 L470.9087 245.4996 L467.941 245.4996 L465.182 245.4996 L461.8 245.4996 L458.5058 245.4996 L454.9667 245.4996 L451.4921 245.4996 L447.5252 245.4996 L443.4319 245.4996 L439.5086 245.4996 L435.4394 245.4996 L430.8206 245.4996 L426.7348 245.4996 L422.0239 245.4996 L417.5535 245.4996 L412.9951 245.4996 L408.6791 245.4996 L403.9507 245.4996 L399.2779 245.4996 L394.6963 245.4996 L389.6328 245.4996 L385.0535 245.4996 L380.5967 245.4996 L375.7832 245.4996 L371.2077 245.4996 L366.6612 245.4996 L361.9655 245.4996 L357.7679 245.4996 L353.1943 245.4996 L348.9161 245.4996 L344.5039 245.4996 L340.4971 245.4996 L336.4071 245.4996 L332.389 245.4996 L328.4591 245.4996 L324.4899 245.4996 L321.0904 245.4996 L317.2532 245.4996 L313.8436 245.4996 L310.2123 245.4996 L307.1094 245.4996 L303.6392 245.4996 L300.6183 245.4996 L297.5678 245.4996 L294.805 245.4996 L291.828 245.4996 L289.3266 245.4996 L286.7051 245.4996 L284.167 245.4996 L281.7858 245.4996 L279.4173 245.4996 L277.252 245.4996 L275.1335 245.4996 L273.196 245.4996 L271.2304 245.4996 L269.5149 245.4996 L267.7108 245.4996 L266.1038 245.4996 L264.4065 245.4996 L262.9576 245.4996 L261.5373 245.4996 L260.1639 245.4996 L258.9077 245.4996 L257.8066 245.4996 L256.6128 245.4996 L255.533 245.4996 L254.5906 245.4996 L253.6264 245.4996 L252.7608 245.4996 L251.9113 245.4996 L251.1883 245.4996 L250.4281 245.4996 L249.821 245.4996 L249.1575 245.4996 L248.6427 245.4996 L248.1199 245.4996 L247.6246 245.4996 L247.1779 245.4996 L246.8186 245.4996 L246.4526 245.4996 L246.1382 245.4996 L245.8629 245.4996 L245.6339 245.4996 L245.447 245.4996 L245.2824 245.4996 L245.1552 245.4996 L245.0662 245.4996 L245.0182 245.4996 L244.999 245.4996 L244.999 245.4996 L244.999 245.4996 L244.999 245.4996 Z"
                  style="stroke:none; clip-path:url(#clipPath2);"/>
        </g>
        <g transform="translate(6,5)"
           style="stroke-linecap:butt; fill:blue; text-rendering:optimizeLegibility; image-rendering:optimizeQuality; color-rendering:optimizeQuality; font-family:'Times New Roman'; stroke-linejoin:round; stroke:blue; color-interpolation:linearRGB;">
            <path d="M244.999 245.4996 L245.0182 248.7099 L245.0662 251.5034 L245.1552 254.6453 L245.2824 257.8087 L245.447 260.9577 L245.6339 263.878 L245.8629 266.9027 L246.1382 270.0319 L246.4526 273.152 L246.8186 276.3624 L247.1779 279.1908 L247.6246 282.3755 L248.1199 285.5737 L248.6427 288.6557 L249.1575 291.4541 L249.821 294.7806 L250.4281 297.597 L251.1883 300.8708 L251.9113 303.7656 L252.7608 306.9373 L253.6264 309.9523 L254.5906 313.0912 L255.533 315.9664 L256.6128 319.0581 L257.8066 322.2572 L258.9077 325.0302 L260.1639 328.0107 L261.5373 331.072 L262.9576 334.0468 L264.4065 336.9038 L266.1038 340.0484 L267.7108 342.8461 L269.5149 345.801 L271.2304 348.4467 L273.196 351.3008 L275.1335 353.9465 L277.252 356.6666 L279.4173 359.2773 L281.7858 361.9542 L284.167 364.4735 L286.7051 366.9851 L289.3266 369.4063 L291.828 371.5656 L294.805 373.9575 L297.5678 376.0167 L300.6183 378.1235 L303.6392 380.0487 L307.1094 382.0751 L310.2123 383.7298 L313.8436 385.4888 L317.2532 386.9756 L321.0904 388.4683 L324.4899 389.6383 L328.4591 390.8315 L332.389 391.8369 L336.4071 392.6906 L340.4971 393.385 L344.5039 393.8996 L348.9161 394.2814 L353.1943 394.4708 L357.7679 394.48 L361.9655 394.3152 L366.6612 393.9362 L371.2077 393.3743 L375.7832 392.6152 L380.5967 391.606 L385.0535 390.4772 L389.6328 389.1198 L394.6963 387.3809 L399.2779 385.5865 L403.9507 383.5331 L408.6791 381.2168 L412.9951 378.8842 L417.5535 376.1826 L422.0239 373.2825 L426.7348 369.9398 L430.8206 366.785 L435.4394 362.9089 L439.5086 359.1968 L443.4319 355.3274 L447.5252 350.953 L451.4921 346.3441 L454.9667 341.9674 L458.5058 337.1349 L461.8 332.2423 L465.182 326.7508 L467.941 321.849 L470.9087 316.0573 L473.4937 310.4649 L475.8502 304.7956 L477.9985 299.002 L479.9664 292.9809 L481.7993 286.4885 L483.2452 280.4487 L484.4482 274.4169 L485.4833 267.9059 L486.2544 261.3583 L486.7216 255.4503 L486.998 248.4291 L486.9976 242.5476 L486.7292 235.676 L486.2048 229.14 L485.5165 223.3347 L484.4967 216.8537 L483.211 210.3947 L481.6776 204.0454 L480.0343 198.2413 L478.1132 192.3269 L475.8976 186.3245 L473.465 180.4688 L470.7374 174.5908 L468.153 169.5447 L465.0484 164.0214 L461.7328 158.6529 L458.3599 153.657 L455.1543 149.278 L451.1768 144.2744 L447.676 140.2145 L443.4637 135.7045 L439.6198 131.908 L435.2892 127.9587 L431.0664 124.412 L426.5694 120.9368 L422.368 117.9507 L417.7704 114.9515 L412.9346 112.0809 L408.6852 109.7855 L404.0638 107.5187 L399.2654 105.4075 L394.558 103.5674 L390.0004 101.9972 L384.9472 100.4929 L380.4223 99.3529 L375.6168 98.353 L371.2927 97.6373 L366.6064 97.0574 L362.243 96.7007 L357.7368 96.5186 L353.3915 96.524 L348.9129 96.718 L344.673 97.0815 L340.4172 97.6261 L336.2814 98.3327 L332.559 99.1227 L328.3885 100.1874 L324.7481 101.2777 L320.9628 102.5776 L317.435 103.9486 L313.6292 105.6092 L310.4297 107.1588 L306.9076 109.0367 L303.7997 110.8525 L300.5123 112.9461 L297.7699 114.8376 L294.753 117.082 L291.9456 119.3356 L289.2445 121.6662 L286.656 124.0611 L284.265 126.4256 L281.7841 129.0469 L279.5186 131.6037 L277.2369 134.3514 L275.2604 136.8849 L273.1723 139.7317 L271.265 142.5007 L269.4507 145.3003 L267.6473 148.2607 L266.067 151.0168 L264.5266 153.8659 L262.9148 157.0394 L261.5337 159.9352 L260.1955 162.916 L258.9093 165.9651 L257.7913 168.7816 L256.665 171.7965 L255.612 174.7996 L254.5543 178.0223 L253.6779 180.8736 L252.7307 184.1705 L251.9327 187.1511 L251.1942 190.1041 L250.4548 193.2829 L249.7673 196.4771 L249.1882 199.3848 L248.6197 202.4737 L248.1096 205.4885 L247.6051 208.7567 L247.2079 211.5842 L246.7953 214.8311 L246.4488 217.8826 L246.1442 220.9037 L245.8768 223.9262 L245.6418 227.0081 L245.4335 230.2738 L245.2789 233.2674 L245.1597 236.2217 L245.0688 239.3793 L245.0154 242.5296 L244.999 245.4996"
                  style="fill:none; clip-path:url(#clipPath3);"/>
        </g>
        <g transform="translate(6,5)"
           style="stroke-linecap:butt; fill:blue; text-rendering:optimizeLegibility; image-rendering:optimizeQuality; color-rendering:optimizeQuality; font-family:'Times New Roman'; stroke-linejoin:round; stroke:blue; color-interpolation:linearRGB;">
            <path d="M244.999 245.4996 L244.9798 242.2893 L244.9318 239.4958 L244.8428 236.3539 L244.7156 233.1906 L244.551 230.0415 L244.364 227.1212 L244.1351 224.0965 L243.8598 220.9673 L243.5453 217.8472 L243.1793 214.6368 L242.8201 211.8084 L242.3733 208.6237 L241.8781 205.4255 L241.3553 202.3435 L240.8405 199.5451 L240.177 196.2186 L239.5699 193.4022 L238.8097 190.1284 L238.0866 187.2336 L237.2371 184.0619 L236.3716 181.047 L235.4074 177.908 L234.465 175.0328 L233.3852 171.9411 L232.1914 168.742 L231.0903 165.969 L229.834 162.9885 L228.4606 159.9272 L227.0403 156.9524 L225.5915 154.0954 L223.8942 150.9508 L222.2871 148.1531 L220.483 145.1982 L218.7675 142.5526 L216.8019 139.6984 L214.8645 137.0527 L212.746 134.3326 L210.5806 131.722 L208.2121 129.045 L205.831 126.5257 L203.2928 124.0141 L200.6714 121.5929 L198.1699 119.4337 L195.193 117.0418 L192.4301 114.9825 L189.3797 112.8757 L186.3588 110.9506 L182.8886 108.9241 L179.7856 107.2694 L176.1543 105.5104 L172.7447 104.0236 L168.9075 102.5309 L165.508 101.3609 L161.5388 100.1677 L157.6089 99.1624 L153.5908 98.3086 L149.5008 97.6142 L145.4941 97.0997 L141.0819 96.7179 L136.8037 96.5284 L132.23 96.5192 L128.0324 96.684 L123.3367 97.063 L118.7903 97.6249 L114.2148 98.384 L109.4012 99.3932 L104.9445 100.522 L100.3652 101.8794 L95.3017 103.6183 L90.72 105.4127 L86.0473 107.4662 L81.3188 109.7824 L77.0029 112.1151 L72.4444 114.8167 L67.9741 117.7167 L63.2632 121.0594 L59.1773 124.2142 L54.5585 128.0903 L50.4894 131.8024 L46.566 135.6718 L42.4728 140.0462 L38.5059 144.6552 L35.0313 149.0318 L31.4922 153.8644 L28.198 158.7569 L24.816 164.2484 L22.0569 169.1502 L19.0892 174.942 L16.5042 180.5344 L14.1478 186.2036 L11.9994 191.9972 L10.0315 198.0183 L8.1987 204.5107 L6.7527 210.5506 L5.5498 216.5823 L4.5147 223.0933 L3.7436 229.641 L3.2764 235.549 L3 242.5701 L3.0004 248.4516 L3.2687 255.3232 L3.7931 261.8592 L4.4815 267.6646 L5.5012 274.1456 L6.7869 280.6046 L8.3203 286.9538 L9.9637 292.7579 L11.8848 298.6723 L14.1003 304.6747 L16.533 310.5304 L19.2605 316.4084 L21.845 321.4545 L24.9496 326.9779 L28.2651 332.3463 L31.638 337.3422 L34.8437 341.7212 L38.8211 346.7248 L42.322 350.7847 L46.5342 355.2948 L50.3782 359.0912 L54.7088 363.0405 L58.9315 366.5873 L63.4286 370.0624 L67.63 373.0485 L72.2276 376.0477 L77.0633 378.9183 L81.3128 381.2137 L85.9342 383.4805 L90.7325 385.5917 L95.44 387.4318 L99.9976 389.002 L105.0508 390.5063 L109.5756 391.6464 L114.3812 392.6462 L118.7053 393.3619 L123.3916 393.9418 L127.7549 394.2986 L132.2612 394.4807 L136.6064 394.4753 L141.0851 394.2812 L145.3249 393.9177 L149.5807 393.3731 L153.7166 392.6665 L157.439 391.8765 L161.6095 390.8119 L165.2499 389.7215 L169.0351 388.4216 L172.5629 387.0506 L176.3688 385.39 L179.5683 383.8404 L183.0903 381.9625 L186.1982 380.1467 L189.4857 378.0531 L192.228 376.1616 L195.245 373.9172 L198.0523 371.6637 L200.7535 369.333 L203.3419 366.9382 L205.733 364.5737 L208.2139 361.9523 L210.4793 359.3955 L212.761 356.6479 L214.7375 354.1143 L216.8256 351.2675 L218.7329 348.4985 L220.5473 345.6989 L222.3507 342.7386 L223.9309 339.9824 L225.4714 337.1333 L227.0831 333.9598 L228.4643 331.0641 L229.8025 328.0833 L231.0887 325.0341 L232.2067 322.2176 L233.3329 319.2027 L234.386 316.1996 L235.4436 312.977 L236.32 310.1256 L237.2672 306.8287 L238.0653 303.8481 L238.8038 300.8951 L239.5432 297.7163 L240.2306 294.5222 L240.8098 291.6144 L241.3783 288.5256 L241.8883 285.5107 L242.3929 282.2426 L242.7901 279.415 L243.2027 276.1682 L243.5491 273.1167 L243.8537 270.0956 L244.1211 267.073 L244.3561 263.9911 L244.5644 260.7254 L244.7191 257.7319 L244.8382 254.7775 L244.9291 251.6199 L244.9825 248.4696 L244.999 245.4996"
                  style="fill:none; clip-path:url(#clipPath3);"/>
        </g>
        <g transform="translate(6,5)"
           style="stroke-linecap:butt; fill:red; text-rendering:optimizeLegibility; image-rendering:optimizeQuality; color-rendering:optimizeQuality; font-family:'Times New Roman'; stroke-linejoin:round; stroke:red; color-interpolation:linearRGB;">
            <path d="M296.2885 93.2958 L296.2606 91.6024 L296.1907 90.1305 L296.0616 88.4783 L295.8778 86.8203 L295.6414 85.177 L295.3747 83.6609 L295.0508 82.1003 L294.6649 80.4978 L294.2291 78.9135 L293.7281 77.2993 L293.243 75.8919 L292.6482 74.3251 L291.9998 72.7722 L291.3269 71.2967 L290.6758 69.9757 L289.8525 68.4302 L289.114 67.1435 L288.2087 65.6744 L287.3664 64.4 L286.3991 63.0314 L285.4368 61.7582 L284.3911 60.4623 L283.3941 59.3027 L282.2805 58.0859 L281.083 56.8606 L280.0077 55.827 L278.813 54.7463 L277.5439 53.6698 L276.269 52.657 L275.0056 51.7161 L273.5696 50.7174 L272.2509 49.8622 L270.8147 48.9942 L269.4893 48.2486 L268.0158 47.4787 L266.6072 46.7983 L265.1133 46.1334 L263.6331 45.5296 L262.0639 44.9473 L260.5355 44.4351 L258.9565 43.9612 L257.3765 43.5416 L255.9134 43.2006 L254.2251 42.8626 L252.7063 42.6084 L251.0792 42.3878 L249.516 42.2255 L247.7754 42.1014 L246.2655 42.0419 L244.5505 42.0282 L242.9878 42.0657 L241.2807 42.1612 L239.811 42.2892 L238.1425 42.4865 L236.5378 42.7287 L234.9425 43.0214 L233.3632 43.3631 L231.8568 43.7379 L230.2419 44.1942 L228.7174 44.6781 L227.1302 45.2383 L225.7099 45.7902 L224.16 46.4488 L222.6966 47.127 L221.2587 47.8491 L219.7818 48.651 L218.4454 49.4321 L217.1019 50.2734 L215.6495 51.2501 L214.3638 52.1766 L213.0793 53.1648 L211.8057 54.2108 L210.6653 55.208 L209.4826 56.3075 L208.3437 57.4349 L207.1651 58.6796 L206.1601 59.8102 L205.0426 61.1508 L204.0739 62.3926 L203.1533 63.65 L202.2066 65.0327 L201.302 66.4512 L200.5198 67.7671 L199.7326 69.1893 L199.0083 70.6007 L198.2728 72.1551 L197.6787 73.5194 L197.0457 75.1068 L196.4991 76.6174 L196.0048 78.1297 L195.5573 79.6577 L195.1501 81.2298 L194.7729 82.9093 L194.4769 84.4597 L194.2316 85.9982 L194.0213 87.6503 L193.8651 89.3048 L193.7706 90.7934 L193.7147 92.5594 L193.7148 94.0379 L193.769 95.7662 L193.8751 97.4132 L194.0146 98.8802 L194.2218 100.5244 L194.4839 102.1718 L194.7979 103.8022 L195.136 105.3039 L195.5336 106.8474 L195.9949 108.4299 L196.5052 109.9918 L197.0821 111.5804 L197.6333 112.9633 L198.3017 114.5002 L199.0229 116.0206 L199.7649 117.4627 L200.4779 118.7513 L201.3735 120.2562 L202.172 121.5065 L203.1459 122.9312 L204.0476 124.1642 L205.0787 125.4855 L206.1001 126.7118 L207.2061 127.9567 L208.2569 129.0678 L209.4268 130.2306 L210.6811 131.3978 L211.8041 132.3794 L213.0486 133.4023 L214.3673 134.4176 L215.6887 135.3689 L216.9953 136.2489 L218.477 137.1786 L219.8347 137.9704 L221.3104 138.7695 L222.6696 139.4515 L224.1779 140.1508 L225.6172 140.7637 L227.1408 141.3572 L228.6481 141.8903 L230.243 142.3977 L231.794 142.837 L233.3936 143.2356 L234.9918 143.58 L236.4694 143.8514 L238.1718 144.1091 L239.701 144.2911 L241.3367 144.4345 L242.9058 144.5226 L244.6503 144.5642 L246.1613 144.5522 L247.8751 144.4847 L249.4342 144.3733 L251.1349 144.1971 L252.5969 143.9997 L254.2542 143.7237 L255.8456 143.4058 L257.4252 143.0379 L258.9866 142.6219 L260.4736 142.1761 L262.0651 141.6439 L263.5649 141.0885 L265.1238 140.4538 L266.5164 139.8353 L268.0333 139.1041 L269.463 138.3574 L270.8651 137.5681 L272.3023 136.6971 L273.6002 135.8537 L274.9024 134.9497 L276.3069 133.9054 L277.5472 132.9191 L278.7835 131.8712 L280.0061 130.7661 L281.0981 129.7161 L282.2274 128.5618 L283.3116 127.3818 L284.4299 126.0827 L285.3802 124.9058 L286.433 123.5138 L287.3418 122.2276 L288.2018 120.928 L289.0819 119.5022 L289.9183 118.0424 L290.6373 116.691 L291.3563 115.2331 L292.013 113.789 L292.674 112.2015 L293.2028 110.8106 L293.76 109.1951 L294.2343 107.6602 L294.6565 106.1263 L295.0311 104.5788 L295.3635 102.9892 L295.6606 101.2937 L295.8829 99.7311 L296.055 98.1827 L296.1869 96.5225 L296.2646 94.8624 L296.2885 93.2958"
                  style="fill:none; clip-path:url(#clipPath3);"/>
        </g>
        <g transform="translate(6,5)"
           style="stroke-linecap:butt; fill:lime; text-rendering:optimizeLegibility; image-rendering:optimizeQuality; color-rendering:optimizeQuality; font-family:'Times New Roman'; stroke-linejoin:round; stroke:lime; color-interpolation:linearRGB;">
            <path d="M296.2885 397.7034 L296.2606 396.0101 L296.1907 394.5381 L296.0616 392.886 L295.8778 391.2279 L295.6414 389.5846 L295.3747 388.0685 L295.0508 386.508 L294.6649 384.9054 L294.2291 383.3211 L293.7281 381.707 L293.243 380.2995 L292.6482 378.7327 L291.9998 377.1799 L291.3269 375.7043 L290.6758 374.3834 L289.8525 372.8378 L289.114 371.5511 L288.2087 370.082 L287.3664 368.8076 L286.3991 367.439 L285.4368 366.1658 L284.3911 364.8699 L283.3941 363.7104 L282.2805 362.4935 L281.083 361.2682 L280.0077 360.2346 L278.813 359.1539 L277.5439 358.0774 L276.269 357.0646 L275.0056 356.1237 L273.5696 355.125 L272.2509 354.2698 L270.8147 353.4018 L269.4893 352.6562 L268.0158 351.8864 L266.6072 351.206 L265.1133 350.541 L263.6331 349.9373 L262.0639 349.3549 L260.5355 348.8427 L258.9565 348.3688 L257.3765 347.9492 L255.9134 347.6082 L254.2251 347.2702 L252.7063 347.0161 L251.0792 346.7954 L249.516 346.6331 L247.7754 346.5091 L246.2655 346.4495 L244.5505 346.4359 L242.9878 346.4733 L241.2807 346.5688 L239.811 346.6968 L238.1425 346.894 L236.5378 347.1364 L234.9425 347.429 L233.3632 347.7707 L231.8568 348.1456 L230.2419 348.6019 L228.7174 349.0857 L227.1302 349.6459 L225.7099 350.1978 L224.16 350.8564 L222.6966 351.5346 L221.2587 352.2567 L219.7818 353.0587 L218.4454 353.8397 L217.1019 354.6811 L215.6495 355.6577 L214.3638 356.5843 L213.0793 357.5724 L211.8057 358.6185 L210.6653 359.6156 L209.4826 360.7151 L208.3437 361.8425 L207.1651 363.0872 L206.1601 364.2178 L205.0426 365.5584 L204.0739 366.8002 L203.1533 368.0576 L202.2066 369.4402 L201.302 370.8588 L200.5198 372.1747 L199.7326 373.5969 L199.0083 375.0083 L198.2728 376.5627 L197.6787 377.927 L197.0457 379.5144 L196.4991 381.0251 L196.0048 382.5373 L195.5573 384.0653 L195.1501 385.6374 L194.7729 387.317 L194.4769 388.8672 L194.2316 390.4058 L194.0213 392.058 L193.8651 393.7124 L193.7706 395.201 L193.7147 396.967 L193.7148 398.4455 L193.769 400.1739 L193.8751 401.8208 L194.0146 403.2878 L194.2218 404.932 L194.4839 406.5795 L194.7979 408.2098 L195.136 409.7115 L195.5336 411.255 L195.9949 412.8375 L196.5052 414.3994 L197.0821 415.988 L197.6333 417.3709 L198.3017 418.9078 L199.0229 420.4283 L199.7649 421.8703 L200.4779 423.1589 L201.3735 424.6638 L202.172 425.9141 L203.1459 427.3387 L204.0476 428.5718 L205.0787 429.8931 L206.1001 431.1194 L207.2061 432.3643 L208.2569 433.4754 L209.4268 434.6382 L210.6811 435.8055 L211.8041 436.787 L213.0486 437.81 L214.3673 438.8252 L215.6887 439.7765 L216.9953 440.6566 L218.477 441.5862 L219.8347 442.378 L221.3104 443.1771 L222.6696 443.8592 L224.1779 444.5584 L225.6172 445.1714 L227.1408 445.7649 L228.6481 446.2979 L230.243 446.8053 L231.794 447.2446 L233.3936 447.6432 L234.9918 447.9876 L236.4694 448.259 L238.1718 448.5167 L239.701 448.6987 L241.3367 448.8421 L242.9058 448.9302 L244.6503 448.9718 L246.1613 448.9598 L247.8751 448.8923 L249.4342 448.7809 L251.1349 448.6047 L252.5969 448.4073 L254.2542 448.1313 L255.8456 447.8134 L257.4252 447.4455 L258.9866 447.0295 L260.4736 446.5838 L262.0651 446.0515 L263.5649 445.4961 L265.1238 444.8614 L266.5164 444.243 L268.0333 443.5117 L269.463 442.765 L270.8651 441.9757 L272.3023 441.1047 L273.6002 440.2613 L274.9024 439.3573 L276.3069 438.313 L277.5472 437.3267 L278.7835 436.2788 L280.0061 435.1737 L281.0981 434.1237 L282.2274 432.9694 L283.3116 431.7894 L284.4299 430.4903 L285.3802 429.3134 L286.433 427.9214 L287.3418 426.6352 L288.2018 425.3356 L289.0819 423.9098 L289.9183 422.45 L290.6373 421.0986 L291.3563 419.6407 L292.013 418.1966 L292.674 416.6091 L293.2028 415.2183 L293.76 413.6027 L294.2343 412.0679 L294.6565 410.5339 L295.0311 408.9864 L295.3635 407.3968 L295.6606 405.7013 L295.8829 404.1387 L296.055 402.5903 L296.1869 400.9301 L296.2646 399.2701 L296.2885 397.7034"
                  style="fill:none; clip-path:url(#clipPath3);"/>
        </g>
    </g>
</svg>
