<?xml version="1.0" encoding="UTF-8"?>
<!DOCTYPE svg PUBLIC '-//W3C//DTD SVG 1.0//EN'
    'http://www.w3.org/TR/2001/REC-SVG-20010904/DTD/svg10.dtd' >

<svg style="stroke-dasharray:none; shape-rendering:auto; font-family:'Dialog'; text-rendering:auto; fill-opacity:1; color-interpolation:auto; color-rendering:auto; font-size:12px; fill:black; stroke:black; image-rendering:auto; stroke-miterlimit:10; stroke-linecap:square; stroke-linejoin:miter; font-style:normal; stroke-width:1; stroke-dashoffset:0; font-weight:normal; stroke-opacity:1;"
     xmlns="http://www.w3.org/2000/svg" contentScriptType="text/ecmascript"
     preserveAspectRatio="xMidYMid meet"
     xmlns:xlink="http://www.w3.org/1999/xlink" zoomAndPan="magnify"
     version="1.0" contentStyleType="text/css">
    <!--Generated by the Batik Graphics2D SVG Generator-->
    <defs id="genericDefs"/>
    <g>
        <defs id="defs1">
            <clipPath clipPathUnits="userSpaceOnUse" id="clipPath1">
                <path d="M0 0 L490 0 L490 490 L0 490 L0 0 Z"/>
            </clipPath>
            <clipPath clipPathUnits="userSpaceOnUse" id="clipPath2">
                <path d="M3 8.1407 L3 481.8593 L487.998 481.8593 L487.998 8.1407 Z"/>
            </clipPath>
            <clipPath clipPathUnits="userSpaceOnUse" id="clipPath3">
                <path d="M1 6.1407 L1 483.8593 L489.998 483.8593 L489.998 6.1407 Z"/>
            </clipPath>
        </defs>
        <g transform="translate(6,5)"
           style="stroke-linecap:butt; fill:lime; text-rendering:geometricPrecision; image-rendering:optimizeQuality; color-rendering:optimizeQuality; font-family:'Times New Roman'; stroke-linejoin:round; shape-rendering:crispEdges; stroke:lime; color-interpolation:linearRGB;">
            <path d="M292.5916 245.4996 L292.5657 245.4996 L292.5009 245.4996 L292.3811 245.4996 L292.2105 245.4996 L291.9911 245.4996 L291.7437 245.4996 L291.4431 245.4996 L291.085 245.4996 L290.6807 245.4996 L290.2158 245.4996 L289.7656 245.4996 L289.2137 245.4996 L288.612 245.4996 L287.9877 245.4996 L287.3834 245.4996 L286.6195 245.4996 L285.9343 245.4996 L285.0942 245.4996 L284.3126 245.4996 L283.415 245.4996 L282.5221 245.4996 L281.5517 245.4996 L280.6266 245.4996 L279.5933 245.4996 L278.4821 245.4996 L277.4843 245.4996 L276.3758 245.4996 L275.1981 245.4996 L274.0151 245.4996 L272.8427 245.4996 L271.5103 245.4996 L270.2866 245.4996 L268.9539 245.4996 L267.7241 245.4996 L266.3568 245.4996 L265.0497 245.4996 L263.6635 245.4996 L262.2899 245.4996 L260.8339 245.4996 L259.4156 245.4996 L257.9505 245.4996 L256.4843 245.4996 L255.1267 245.4996 L253.5601 245.4996 L252.1507 245.4996 L250.6409 245.4996 L249.1904 245.4996 L247.5753 245.4996 L246.1742 245.4996 L244.5828 245.4996 L243.1328 245.4996 L241.5487 245.4996 L240.185 245.4996 L238.6367 245.4996 L237.1476 245.4996 L235.6674 245.4996 L234.2019 245.4996 L232.804 245.4996 L231.3055 245.4996 L229.891 245.4996 L228.4181 245.4996 L227.1002 245.4996 L225.6621 245.4996 L224.3041 245.4996 L222.9699 245.4996 L221.5994 245.4996 L220.3594 245.4996 L219.1127 245.4996 L217.7649 245.4996 L216.572 245.4996 L215.3801 245.4996 L214.1983 245.4996 L213.14 245.4996 L212.0425 245.4996 L210.9857 245.4996 L209.8921 245.4996 L208.9595 245.4996 L207.9226 245.4996 L207.0237 245.4996 L206.1695 245.4996 L205.291 245.4996 L204.4517 245.4996 L203.7258 245.4996 L202.9954 245.4996 L202.3232 245.4996 L201.6407 245.4996 L201.0895 245.4996 L200.5021 245.4996 L199.995 245.4996 L199.5363 245.4996 L199.121 245.4996 L198.7431 245.4996 L198.3932 245.4996 L198.1185 245.4996 L197.8909 245.4996 L197.6957 245.4996 L197.5507 245.4996 L197.463 245.4996 L197.4112 245.4996 L197.4113 245.4996 L197.4616 245.4996 L197.56 245.4996 L197.6895 245.4996 L197.8817 245.4996 L198.125 245.4996 L198.4163 245.4996 L198.7301 245.4996 L199.099 245.4996 L199.5271 245.4996 L200.0006 245.4996 L200.5359 245.4996 L201.0474 245.4996 L201.6675 245.4996 L202.3368 245.4996 L203.0253 245.4996 L203.6869 245.4996 L204.5179 245.4996 L205.2589 245.4996 L206.1626 245.4996 L206.9993 245.4996 L207.9561 245.4996 L208.9039 245.4996 L209.9302 245.4996 L210.9052 245.4996 L211.9908 245.4996 L213.1547 245.4996 L214.1968 245.4996 L215.3515 245.4996 L216.5752 245.4996 L217.8013 245.4996 L219.0137 245.4996 L220.3886 245.4996 L221.6485 245.4996 L223.0178 245.4996 L224.279 245.4996 L225.6787 245.4996 L227.0142 245.4996 L228.428 245.4996 L229.8266 245.4996 L231.3066 245.4996 L232.7458 245.4996 L234.2301 245.4996 L235.7131 245.4996 L237.0842 245.4996 L238.6638 245.4996 L240.0828 245.4996 L241.6006 245.4996 L243.0566 245.4996 L244.6754 245.4996 L246.0775 245.4996 L247.6678 245.4996 L249.1145 245.4996 L250.6926 245.4996 L252.0492 245.4996 L253.5871 245.4996 L255.0638 245.4996 L256.5295 245.4996 L257.9784 245.4996 L259.3582 245.4996 L260.835 245.4996 L262.2267 245.4996 L263.6732 245.4996 L264.9655 245.4996 L266.373 245.4996 L267.6996 245.4996 L269.0007 245.4996 L270.3343 245.4996 L271.5387 245.4996 L272.747 245.4996 L274.0503 245.4996 L275.2012 245.4996 L276.3483 245.4996 L277.4828 245.4996 L278.4961 245.4996 L279.544 245.4996 L280.5501 245.4996 L281.5878 245.4996 L282.4696 245.4996 L283.4465 245.4996 L284.2898 245.4996 L285.0878 245.4996 L285.9045 245.4996 L286.6806 245.4996 L287.3477 245.4996 L288.0149 245.4996 L288.6243 245.4996 L289.2377 245.4996 L289.7283 245.4996 L290.2453 245.4996 L290.6855 245.4996 L291.0772 245.4996 L291.4249 245.4996 L291.7333 245.4996 L292.009 245.4996 L292.2152 245.4996 L292.3749 245.4996 L292.4973 245.4996 L292.5694 245.4996 L292.5916 245.4996 L292.5916 56.7292 L292.5694 58.1834 L292.4973 59.7243 L292.3749 61.2654 L292.2152 62.7027 L292.009 64.1532 L291.7333 65.727 L291.4249 67.2025 L291.0772 68.6389 L290.6855 70.0628 L290.2453 71.4875 L289.7283 72.9872 L289.2377 74.2782 L288.6243 75.7517 L288.0149 77.0922 L287.3477 78.4455 L286.6806 79.6999 L285.9045 81.0549 L285.0878 82.3784 L284.2898 83.5847 L283.4465 84.7787 L282.4696 86.0708 L281.5878 87.1632 L280.5501 88.3691 L279.544 89.4644 L278.4961 90.5359 L277.4828 91.5105 L276.3483 92.5363 L275.2012 93.509 L274.0503 94.4246 L272.747 95.3939 L271.5387 96.233 L270.3343 97.0159 L269.0007 97.8244 L267.6996 98.557 L266.373 99.2502 L264.9655 99.9289 L263.6732 100.503 L262.2267 101.0922 L260.835 101.6077 L259.3582 102.1018 L257.9784 102.5155 L256.5295 102.9017 L255.0638 103.2431 L253.5871 103.5383 L252.0492 103.7944 L250.6926 103.9777 L249.1145 104.1412 L247.6678 104.2446 L246.0775 104.3073 L244.6754 104.3184 L243.0566 104.2798 L241.6006 104.198 L240.0828 104.0649 L238.6638 103.896 L237.0842 103.6568 L235.7131 103.4049 L234.2301 103.0852 L232.7458 102.7152 L231.3066 102.3074 L229.8266 101.8364 L228.428 101.3416 L227.0142 100.7907 L225.6787 100.2217 L224.279 99.5727 L223.0178 98.9395 L221.6485 98.1978 L220.3886 97.4628 L219.0137 96.5999 L217.8013 95.783 L216.5752 94.9 L215.3515 93.9576 L214.1968 93.0081 L213.1547 92.0969 L211.9908 91.0134 L210.9052 89.9341 L209.9302 88.9028 L208.9039 87.7471 L207.9561 86.6089 L206.9993 85.3824 L206.1626 84.2378 L205.2589 82.9154 L204.5179 81.7549 L203.6869 80.358 L203.0253 79.1618 L202.3368 77.8232 L201.6675 76.4119 L201.0474 74.9853 L200.5359 73.7017 L200.0006 72.227 L199.5271 70.7772 L199.099 69.3083 L198.7301 67.8755 L198.4163 66.4816 L198.125 64.9683 L197.8817 63.439 L197.6895 61.9128 L197.56 60.5511 L197.4616 59.0223 L197.4113 57.418 L197.4112 56.0456 L197.463 54.4063 L197.5507 53.0246 L197.6957 51.4889 L197.8909 49.9553 L198.1185 48.5271 L198.3932 47.0881 L198.7431 45.5291 L199.121 44.0698 L199.5363 42.6514 L199.995 41.2477 L200.5021 39.8454 L201.0895 38.3719 L201.6407 37.1056 L202.3232 35.6627 L202.9954 34.3526 L203.7258 33.0325 L204.4517 31.811 L205.291 30.4943 L206.1695 29.2108 L207.0237 28.0437 L207.9226 26.891 L208.9595 25.6466 L209.8921 24.5971 L210.9857 23.4417 L212.0425 22.3953 L213.14 21.3747 L214.1983 20.449 L215.3801 19.4781 L216.572 18.5608 L217.7649 17.7008 L219.1127 16.7942 L220.3594 16.0133 L221.5994 15.2882 L222.9699 14.5438 L224.3041 13.8736 L225.6621 13.244 L227.1002 12.6327 L228.4181 12.1204 L229.891 11.6004 L231.3055 11.1512 L232.804 10.7277 L234.2019 10.3797 L235.6674 10.0626 L237.1476 9.7909 L238.6367 9.566 L240.185 9.3829 L241.5487 9.2641 L243.1328 9.1754 L244.5828 9.1407 L246.1742 9.1534 L247.5753 9.2086 L249.1904 9.3238 L250.6409 9.4745 L252.1507 9.6793 L253.5601 9.9152 L255.1267 10.2289 L256.4843 10.5454 L257.9505 10.9349 L259.4156 11.3748 L260.8339 11.8503 L262.2899 12.3908 L263.6635 12.9513 L265.0497 13.5685 L266.3568 14.2001 L267.7241 14.9146 L268.9539 15.6068 L270.2866 16.4125 L271.5103 17.2063 L272.8427 18.1334 L274.0151 19.0067 L275.1981 19.9468 L276.3758 20.946 L277.4843 21.9492 L278.4821 22.9086 L279.5933 24.046 L280.6266 25.1755 L281.5517 26.2519 L282.5221 27.4548 L283.415 28.6366 L284.3126 29.907 L285.0942 31.0899 L285.9343 32.4536 L286.6195 33.648 L287.3834 35.0826 L287.9877 36.3088 L288.612 37.6784 L289.2137 39.1198 L289.7656 40.5742 L290.2158 41.8807 L290.6807 43.379 L291.085 44.8496 L291.4431 46.3371 L291.7437 47.7857 L291.9911 49.193 L292.2105 50.7184 L292.3811 52.2574 L292.5009 53.791 L292.5657 55.1573 L292.5916 56.7292 L292.5916 245.4996 L292.5916 245.4996 L292.5916 245.4996 Z"
                  style="stroke:none; clip-path:url(#clipPath2);"/>
        </g>
        <g transform="translate(6,5)"
           style="stroke-linecap:butt; fill:red; text-rendering:geometricPrecision; image-rendering:optimizeQuality; color-rendering:optimizeQuality; font-family:'Times New Roman'; stroke-linejoin:round; shape-rendering:crispEdges; stroke:red; color-interpolation:linearRGB;">
            <path d="M292.5916 434.2701 L292.5657 432.6982 L292.5009 431.3319 L292.3811 429.7983 L292.2105 428.2593 L291.9911 426.7339 L291.7437 425.3266 L291.4431 423.8781 L291.085 422.3905 L290.6807 420.9199 L290.2158 419.4216 L289.7656 418.1151 L289.2137 416.6608 L288.612 415.2194 L287.9877 413.8497 L287.3834 412.6235 L286.6195 411.1889 L285.9343 409.9945 L285.0942 408.6309 L284.3126 407.4479 L283.415 406.1776 L282.5221 404.9957 L281.5517 403.7928 L280.6266 402.7164 L279.5933 401.5869 L278.4821 400.4495 L277.4843 399.4901 L276.3758 398.487 L275.1981 397.4877 L274.0151 396.5476 L272.8427 395.6743 L271.5103 394.7472 L270.2866 393.9534 L268.9539 393.1476 L267.7241 392.4555 L266.3568 391.741 L265.0497 391.1094 L263.6635 390.4922 L262.2899 389.9317 L260.8339 389.3912 L259.4156 388.9157 L257.9505 388.4758 L256.4843 388.0864 L255.1267 387.7698 L253.5601 387.4561 L252.1507 387.2202 L250.6409 387.0154 L249.1904 386.8647 L247.5753 386.7495 L246.1742 386.6943 L244.5828 386.6816 L243.1328 386.7164 L241.5487 386.805 L240.185 386.9239 L238.6367 387.1069 L237.1476 387.3318 L235.6674 387.6035 L234.2019 387.9206 L232.804 388.2686 L231.3055 388.6922 L229.891 389.1413 L228.4181 389.6613 L227.1002 390.1736 L225.6621 390.7849 L224.3041 391.4145 L222.9699 392.0847 L221.5994 392.8291 L220.3594 393.5541 L219.1127 394.3351 L217.7649 395.2417 L216.572 396.1017 L215.3801 397.019 L214.1983 397.99 L213.14 398.9156 L212.0425 399.9362 L210.9857 400.9827 L209.8921 402.1381 L208.9595 403.1875 L207.9226 404.4319 L207.0237 405.5846 L206.1695 406.7518 L205.291 408.0352 L204.4517 409.3519 L203.7258 410.5734 L202.9954 411.8936 L202.3232 413.2036 L201.6407 414.6465 L201.0895 415.9128 L200.5021 417.3863 L199.995 418.7886 L199.5363 420.1923 L199.121 421.6107 L198.7431 423.0699 L198.3932 424.629 L198.1185 426.068 L197.8909 427.4962 L197.6957 429.0298 L197.5507 430.5655 L197.463 431.9473 L197.4112 433.5865 L197.4113 434.9589 L197.4616 436.5632 L197.56 438.092 L197.6895 439.4537 L197.8817 440.9799 L198.125 442.5092 L198.4163 444.0225 L198.7301 445.4164 L199.099 446.8492 L199.5271 448.3181 L200.0006 449.7679 L200.5359 451.2426 L201.0474 452.5262 L201.6675 453.9528 L202.3368 455.3641 L203.0253 456.7027 L203.6869 457.8989 L204.5179 459.2958 L205.2589 460.4563 L206.1626 461.7787 L206.9993 462.9233 L207.9561 464.1498 L208.9039 465.2881 L209.9302 466.4437 L210.9052 467.475 L211.9908 468.5543 L213.1547 469.6378 L214.1968 470.549 L215.3515 471.4985 L216.5752 472.4409 L217.8013 473.3239 L219.0137 474.1408 L220.3886 475.0037 L221.6485 475.7387 L223.0178 476.4805 L224.279 477.1136 L225.6787 477.7626 L227.0142 478.3316 L228.428 478.8825 L229.8266 479.3773 L231.3066 479.8483 L232.7458 480.2561 L234.2301 480.6261 L235.7131 480.9458 L237.0842 481.1977 L238.6638 481.4369 L240.0828 481.6058 L241.6006 481.7389 L243.0566 481.8208 L244.6754 481.8593 L246.0775 481.8482 L247.6678 481.7855 L249.1145 481.6822 L250.6926 481.5186 L252.0492 481.3353 L253.5871 481.0792 L255.0638 480.784 L256.5295 480.4426 L257.9784 480.0564 L259.3582 479.6427 L260.835 479.1487 L262.2267 478.6331 L263.6732 478.0439 L264.9655 477.4698 L266.373 476.7911 L267.6996 476.0979 L269.0007 475.3653 L270.3343 474.5568 L271.5387 473.7739 L272.747 472.9348 L274.0503 471.9655 L275.2012 471.0499 L276.3483 470.0773 L277.4828 469.0514 L278.4961 468.0768 L279.544 467.0053 L280.5501 465.91 L281.5878 464.7041 L282.4696 463.6117 L283.4465 462.3196 L284.2898 461.1256 L285.0878 459.9194 L285.9045 458.5958 L286.6806 457.2408 L287.3477 455.9864 L288.0149 454.6331 L288.6243 453.2926 L289.2377 451.8191 L289.7283 450.528 L290.2453 449.0284 L290.6855 447.6037 L291.0772 446.1799 L291.4249 444.7434 L291.7333 443.2679 L292.009 441.6941 L292.2152 440.2436 L292.3749 438.8063 L292.4973 437.2652 L292.5694 435.7243 L292.5916 434.2701 L292.5916 245.4996 L292.5694 245.4996 L292.4973 245.4996 L292.3749 245.4996 L292.2152 245.4996 L292.009 245.4996 L291.7333 245.4996 L291.4249 245.4996 L291.0772 245.4996 L290.6855 245.4996 L290.2453 245.4996 L289.7283 245.4996 L289.2377 245.4996 L288.6243 245.4996 L288.0149 245.4996 L287.3477 245.4996 L286.6806 245.4996 L285.9045 245.4996 L285.0878 245.4996 L284.2898 245.4996 L283.4465 245.4996 L282.4696 245.4996 L281.5878 245.4996 L280.5501 245.4996 L279.544 245.4996 L278.4961 245.4996 L277.4828 245.4996 L276.3483 245.4996 L275.2012 245.4996 L274.0503 245.4996 L272.747 245.4996 L271.5387 245.4996 L270.3343 245.4996 L269.0007 245.4996 L267.6996 245.4996 L266.373 245.4996 L264.9655 245.4996 L263.6732 245.4996 L262.2267 245.4996 L260.835 245.4996 L259.3582 245.4996 L257.9784 245.4996 L256.5295 245.4996 L255.0638 245.4996 L253.5871 245.4996 L252.0492 245.4996 L250.6926 245.4996 L249.1145 245.4996 L247.6678 245.4996 L246.0775 245.4996 L244.6754 245.4996 L243.0566 245.4996 L241.6006 245.4996 L240.0828 245.4996 L238.6638 245.4996 L237.0842 245.4996 L235.7131 245.4996 L234.2301 245.4996 L232.7458 245.4996 L231.3066 245.4996 L229.8266 245.4996 L228.428 245.4996 L227.0142 245.4996 L225.6787 245.4996 L224.279 245.4996 L223.0178 245.4996 L221.6485 245.4996 L220.3886 245.4996 L219.0137 245.4996 L217.8013 245.4996 L216.5752 245.4996 L215.3515 245.4996 L214.1968 245.4996 L213.1547 245.4996 L211.9908 245.4996 L210.9052 245.4996 L209.9302 245.4996 L208.9039 245.4996 L207.9561 245.4996 L206.9993 245.4996 L206.1626 245.4996 L205.2589 245.4996 L204.5179 245.4996 L203.6869 245.4996 L203.0253 245.4996 L202.3368 245.4996 L201.6675 245.4996 L201.0474 245.4996 L200.5359 245.4996 L200.0006 245.4996 L199.5271 245.4996 L199.099 245.4996 L198.7301 245.4996 L198.4163 245.4996 L198.125 245.4996 L197.8817 245.4996 L197.6895 245.4996 L197.56 245.4996 L197.4616 245.4996 L197.4113 245.4996 L197.4112 245.4996 L197.463 245.4996 L197.5507 245.4996 L197.6957 245.4996 L197.8909 245.4996 L198.1185 245.4996 L198.3932 245.4996 L198.7431 245.4996 L199.121 245.4996 L199.5363 245.4996 L199.995 245.4996 L200.5021 245.4996 L201.0895 245.4996 L201.6407 245.4996 L202.3232 245.4996 L202.9954 245.4996 L203.7258 245.4996 L204.4517 245.4996 L205.291 245.4996 L206.1695 245.4996 L207.0237 245.4996 L207.9226 245.4996 L208.9595 245.4996 L209.8921 245.4996 L210.9857 245.4996 L212.0425 245.4996 L213.14 245.4996 L214.1983 245.4996 L215.3801 245.4996 L216.572 245.4996 L217.7649 245.4996 L219.1127 245.4996 L220.3594 245.4996 L221.5994 245.4996 L222.9699 245.4996 L224.3041 245.4996 L225.6621 245.4996 L227.1002 245.4996 L228.4181 245.4996 L229.891 245.4996 L231.3055 245.4996 L232.804 245.4996 L234.2019 245.4996 L235.6674 245.4996 L237.1476 245.4996 L238.6367 245.4996 L240.185 245.4996 L241.5487 245.4996 L243.1328 245.4996 L244.5828 245.4996 L246.1742 245.4996 L247.5753 245.4996 L249.1904 245.4996 L250.6409 245.4996 L252.1507 245.4996 L253.5601 245.4996 L255.1267 245.4996 L256.4843 245.4996 L257.9505 245.4996 L259.4156 245.4996 L260.8339 245.4996 L262.2899 245.4996 L263.6635 245.4996 L265.0497 245.4996 L266.3568 245.4996 L267.7241 245.4996 L268.9539 245.4996 L270.2866 245.4996 L271.5103 245.4996 L272.8427 245.4996 L274.0151 245.4996 L275.1981 245.4996 L276.3758 245.4996 L277.4843 245.4996 L278.4821 245.4996 L279.5933 245.4996 L280.6266 245.4996 L281.5517 245.4996 L282.5221 245.4996 L283.415 245.4996 L284.3126 245.4996 L285.0942 245.4996 L285.9343 245.4996 L286.6195 245.4996 L287.3834 245.4996 L287.9877 245.4996 L288.612 245.4996 L289.2137 245.4996 L289.7656 245.4996 L290.2158 245.4996 L290.6807 245.4996 L291.085 245.4996 L291.4431 245.4996 L291.7437 245.4996 L291.9911 245.4996 L292.2105 245.4996 L292.3811 245.4996 L292.5009 245.4996 L292.5657 245.4996 L292.5916 245.4996 L292.5916 434.2701 L292.5916 434.2701 L292.5916 434.2701 Z"
                  style="stroke:none; clip-path:url(#clipPath2);"/>
        </g>
        <g transform="translate(6,5)"
           style="stroke-linecap:butt; fill:blue; text-rendering:geometricPrecision; image-rendering:optimizeQuality; color-rendering:optimizeQuality; font-family:'Times New Roman'; stroke-linejoin:round; shape-rendering:crispEdges; stroke:blue; color-interpolation:linearRGB;">
            <path d="M244.999 245.4996 L245.0063 245.4996 L245.0247 245.4996 L245.0584 245.4996 L245.1061 245.4996 L245.1669 245.4996 L245.2346 245.4996 L245.3159 245.4996 L245.411 245.4996 L245.5163 245.4996 L245.6343 245.4996 L245.7455 245.4996 L245.8776 245.4996 L246.0159 245.4996 L246.153 245.4996 L246.2793 245.4996 L246.4295 245.4996 L246.5548 245.4996 L246.6959 245.4996 L246.8141 245.4996 L246.9339 245.4996 L247.0351 245.4996 L247.124 245.4996 L247.1874 245.4996 L247.2325 245.4996 L247.2492 245.4996 L247.2349 245.4996 L247.1851 245.4996 L247.0913 245.4996 L246.9527 245.4996 L246.7696 245.4996 L246.5035 245.4996 L246.2025 245.4996 L245.81 245.4996 L245.3854 245.4996 L244.84 245.4996 L244.2432 245.4996 L243.5263 245.4996 L242.7269 245.4996 L241.7787 245.4996 L240.7508 245.4996 L239.5763 245.4996 L238.2814 245.4996 L236.9713 245.4996 L235.321 245.4996 L233.7045 245.4996 L231.8284 245.4996 L229.8795 245.4996 L227.5334 245.4996 L225.3419 245.4996 L222.6694 245.4996 L220.0577 245.4996 L217.0042 245.4996 L214.2013 245.4996 L210.8164 245.4996 L207.3495 245.4996 L203.69 245.4996 L199.8493 245.4996 L195.9769 245.4996 L191.5905 245.4996 L187.2185 245.4996 L182.4187 245.4996 L177.9022 245.4996 L172.7264 245.4996 L167.5943 245.4996 L162.3121 245.4996 L156.631 245.4996 L151.2601 245.4996 L145.6328 245.4996 L139.2847 245.4996 L133.4291 245.4996 L127.3499 245.4996 L121.0902 245.4996 L115.2833 245.4996 L109.0548 245.4996 L102.8533 245.4996 L96.2193 245.4996 L90.3847 245.4996 L83.6999 245.4996 L77.7331 245.4996 L71.9123 245.4996 L65.7693 245.4996 L59.7483 245.4996 L54.4203 245.4996 L48.942 245.4996 L43.7965 245.4996 L38.4679 245.4996 L34.0865 245.4996 L29.3397 245.4996 L25.1764 245.4996 L21.3581 245.4996 L17.858 245.4996 L14.6359 245.4996 L11.6214 245.4996 L9.2339 245.4996 L7.2416 245.4996 L5.5227 245.4996 L4.2396 245.4996 L3.461 245.4996 L3 245.4996 L3.0003 245.4996 L3.0007 249.5875 L3.4481 259.0982 L4.3221 268.1302 L5.4675 276.1331 L7.161 285.0372 L9.2905 293.8699 L11.8219 302.5026 L14.5245 310.3419 L17.6707 318.2702 L21.281 326.2448 L25.2228 333.9444 L29.6147 341.5828 L33.7487 348.0579 L38.6793 355.0475 L43.9018 361.7303 L49.1688 367.839 L54.1312 373.0948 L60.2291 378.9735 L65.5416 383.6316 L71.8648 388.6724 L77.5691 392.7919 L83.9188 396.9393 L90.0313 400.5262 L96.454 403.8929 L102.3721 406.649 L108.7561 409.2658 L115.3652 411.5988 L121.0822 413.3163 L127.2015 414.8512 L133.4452 416.0969 L139.4598 416.9913 L145.1764 417.5619 L151.3895 417.8686 L156.8391 417.8629 L162.5062 417.5762 L167.4972 417.078 L172.7877 416.2872 L177.5999 415.3209 L182.4518 414.0939 L187.0141 412.693 L191.5937 411.0273 L195.811 409.2438 L199.9254 407.2516 L203.8062 405.1208 L207.1971 403.0377 L210.8776 400.5154 L213.9848 398.1483 L217.1077 395.5201 L219.9158 392.9136 L222.8304 389.9267 L225.1852 387.2704 L227.6728 384.1866 L229.7734 381.3207 L231.8951 378.1341 L233.5831 375.3477 L235.3507 372.1398 L236.9079 369.0128 L238.3232 365.8661 L239.5998 362.715 L240.707 359.6773 L241.7794 356.3869 L242.6879 353.2487 L243.5316 349.9477 L244.2021 346.9643 L244.8469 343.6756 L245.3763 340.5367 L245.8249 337.4189 L246.2153 334.1788 L246.5099 331.2114 L246.7526 328.1905 L246.9575 324.8779 L247.0916 321.9007 L247.1834 318.8784 L247.2348 315.829 L247.2492 313.048 L247.2339 310.1072 L247.1917 307.2132 L247.1211 304.1444 L247.0405 301.4595 L246.9299 298.3885 L246.8174 295.6414 L246.6969 292.9457 L246.56 290.0711 L246.4178 287.2095 L246.2865 284.6266 L246.1472 281.9044 L246.0132 279.2675 L245.8719 276.43 L245.7546 273.9912 L245.6269 271.2078 L245.515 268.6072 L245.4131 266.0456 L245.3208 263.4944 L245.2375 260.9037 L245.1619 258.1686 L245.1047 255.6689 L245.0601 253.2076 L245.0257 250.5817 L245.0053 247.9651 L244.999 245.4996 L244.999 245.4996 L244.999 245.4996 L244.999 245.4996 L245.0053 245.4996 L245.0257 245.4996 L245.0601 245.4996 L245.1047 245.4996 L245.1619 245.4996 L245.2375 245.4996 L245.3208 245.4996 L245.4131 245.4996 L245.515 245.4996 L245.6269 245.4996 L245.7546 245.4996 L245.8719 245.4996 L246.0132 245.4996 L246.1472 245.4996 L246.2865 245.4996 L246.4178 245.4996 L246.56 245.4996 L246.6969 245.4996 L246.8174 245.4996 L246.9299 245.4996 L247.0405 245.4996 L247.1211 245.4996 L247.1917 245.4996 L247.2339 245.4996 L247.2492 245.4996 L247.2348 245.4996 L247.1834 245.4996 L247.0916 245.4996 L246.9575 245.4996 L246.7526 245.4996 L246.5099 245.4996 L246.2153 245.4996 L245.8249 245.4996 L245.3763 245.4996 L244.8469 245.4996 L244.2021 245.4996 L243.5316 245.4996 L242.6879 245.4996 L241.7794 245.4996 L240.707 245.4996 L239.5998 245.4996 L238.3232 245.4996 L236.9079 245.4996 L235.3507 245.4996 L233.5831 245.4996 L231.8951 245.4996 L229.7734 245.4996 L227.6728 245.4996 L225.1852 245.4996 L222.8304 245.4996 L219.9158 245.4996 L217.1077 245.4996 L213.9848 245.4996 L210.8776 245.4996 L207.1971 245.4996 L203.8062 245.4996 L199.9254 245.4996 L195.811 245.4996 L191.5937 245.4996 L187.0141 245.4996 L182.4518 245.4996 L177.5999 245.4996 L172.7877 245.4996 L167.4972 245.4996 L162.5062 245.4996 L156.8391 245.4996 L151.3895 245.4996 L145.1764 245.4996 L139.4598 245.4996 L133.4452 245.4996 L127.2015 245.4996 L121.0822 245.4996 L115.3652 245.4996 L108.7561 245.4996 L102.3721 245.4996 L96.454 245.4996 L90.0313 245.4996 L83.9188 245.4996 L77.5691 245.4996 L71.8648 245.4996 L65.5416 245.4996 L60.2291 245.4996 L54.1312 245.4996 L49.1688 245.4996 L43.9018 245.4996 L38.6793 245.4996 L33.7487 245.4996 L29.6147 245.4996 L25.2228 245.4996 L21.281 245.4996 L17.6707 245.4996 L14.5245 245.4996 L11.8219 245.4996 L9.2905 245.4996 L7.161 245.4996 L5.4675 245.4996 L4.3221 245.4996 L3.4481 245.4996 L3.0007 245.4996 L3.0003 245.4996 L3 241.443 L3.461 231.7254 L4.2396 223.5607 L5.5227 214.534 L7.2416 205.5901 L9.2339 197.342 L11.6214 189.1274 L14.6359 180.3572 L17.858 172.289 L21.3581 164.5946 L25.1764 157.1405 L29.3397 149.8701 L34.0865 142.4386 L38.4679 136.237 L43.7965 129.3972 L48.942 123.4116 L54.4203 117.6119 L59.7483 112.4679 L65.7693 107.1769 L71.9123 102.291 L77.7331 98.0946 L83.6999 94.1957 L90.3847 90.2774 L96.2193 87.2224 L102.8533 84.1404 L109.0548 81.6198 L115.2833 79.4271 L121.0902 77.6807 L127.3499 76.1147 L133.4291 74.9052 L139.2847 74.0297 L145.6328 73.4037 L151.2601 73.1337 L156.631 73.1314 L162.3121 73.4084 L167.5943 73.9333 L172.7264 74.7014 L177.9022 75.7473 L182.4187 76.8961 L187.2185 78.3749 L191.5905 79.9707 L195.9769 81.8308 L199.8493 83.7084 L203.69 85.8108 L207.3495 88.0605 L210.8164 90.4395 L214.2013 93.0248 L217.0042 95.3878 L220.0577 98.2242 L222.6694 100.8993 L225.3419 103.9143 L227.5334 106.6314 L229.8795 109.8305 L231.8284 112.7599 L233.7045 115.8618 L235.321 118.8029 L236.9713 122.1206 L238.2814 125.0355 L239.5763 128.2233 L240.7508 131.4492 L241.7787 134.61 L242.7269 137.8941 L243.5263 141.0293 L244.2432 144.2307 L244.84 147.2855 L245.3854 150.5208 L245.81 153.4677 L246.2025 156.7037 L246.5035 159.7174 L246.7696 163.0502 L246.9527 166.0312 L247.0913 169.0905 L247.1851 172.1939 L247.2349 175.1742 L247.2492 177.9123 L247.2325 181.0321 L247.1874 184.0095 L247.124 186.7467 L247.0351 189.7021 L246.9339 192.5102 L246.8141 195.4336 L246.6959 198.0757 L246.5548 201.0355 L246.4295 203.5592 L246.2793 206.5145 L246.153 208.9806 L246.0159 211.6768 L245.8776 214.4543 L245.7455 217.2009 L245.6343 219.6254 L245.5163 222.3621 L245.411 225.0075 L245.3159 227.6483 L245.2346 230.1904 L245.1669 232.6365 L245.1061 235.2664 L245.0584 237.9017 L245.0247 240.5144 L245.0063 242.8347 L244.999 245.4996 L244.999 245.4996 L244.999 245.4996 L244.999 245.4996 Z"
                  style="stroke:none; clip-path:url(#clipPath2);"/>
        </g>
        <g transform="translate(6,5)"
           style="stroke-linecap:butt; fill:blue; text-rendering:geometricPrecision; image-rendering:optimizeQuality; color-rendering:optimizeQuality; font-family:'Times New Roman'; stroke-linejoin:round; shape-rendering:crispEdges; stroke:blue; color-interpolation:linearRGB;">
            <path d="M244.999 245.4996 L244.9916 248.1646 L244.9733 250.4849 L244.9396 253.0976 L244.8919 255.7329 L244.8311 258.3628 L244.7633 260.8089 L244.6821 263.351 L244.5869 265.9918 L244.4817 268.6373 L244.3636 271.3738 L244.2524 273.7984 L244.1204 276.545 L243.9821 279.3224 L243.8449 282.0187 L243.7187 284.4848 L243.5685 287.4401 L243.4432 289.9638 L243.3021 292.9236 L243.1838 295.5657 L243.0641 298.4891 L242.9629 301.2971 L242.874 304.2526 L242.8106 306.9898 L242.7655 309.9671 L242.7488 313.0869 L242.7631 315.8251 L242.8129 318.8054 L242.9067 321.9088 L243.0452 324.9681 L243.2284 327.9491 L243.4944 331.2819 L243.7955 334.2956 L244.188 337.5316 L244.6125 340.4785 L245.158 343.7137 L245.7548 346.7686 L246.4717 349.97 L247.271 353.1052 L248.2193 356.3893 L249.2471 359.5501 L250.4216 362.776 L251.7166 365.9638 L253.0267 368.8786 L254.6769 372.1964 L256.2935 375.1375 L258.1696 378.2393 L260.1185 381.1688 L262.4646 384.3679 L264.656 387.085 L267.3285 390.0999 L269.9402 392.7751 L272.9937 395.6115 L275.7966 397.9745 L279.1816 400.5598 L282.6484 402.9388 L286.308 405.1885 L290.1487 407.2909 L294.0211 409.1685 L298.4075 411.0286 L302.7794 412.6244 L307.5793 414.1032 L312.0958 415.252 L317.2715 416.2979 L322.4037 417.066 L327.6858 417.5909 L333.3669 417.8679 L338.7378 417.8656 L344.3652 417.5956 L350.7133 416.9695 L356.5689 416.0941 L362.6481 414.8846 L368.9077 413.3186 L374.7147 411.5722 L380.9431 409.3794 L387.1447 406.8589 L393.7786 403.7769 L399.6133 400.7219 L406.2981 396.8036 L412.2648 392.9047 L418.0856 388.7083 L424.2287 383.8223 L430.2497 378.5314 L435.5777 373.3874 L441.056 367.5877 L446.2015 361.6021 L451.5301 354.7623 L455.9114 348.5607 L460.6583 341.1292 L464.8216 333.8588 L468.6399 326.4046 L472.14 318.7103 L475.3621 310.642 L478.3766 301.8718 L480.7641 293.6573 L482.7564 285.4092 L484.4753 276.4653 L485.7584 267.4386 L486.537 259.2739 L486.998 249.5563 L486.9976 245.4996 L486.9973 245.4996 L486.5498 245.4996 L485.6759 245.4996 L484.5305 245.4996 L482.8369 245.4996 L480.7075 245.4996 L478.1761 245.4996 L475.4734 245.4996 L472.3273 245.4996 L468.717 245.4996 L464.7751 245.4996 L460.3833 245.4996 L456.2493 245.4996 L451.3187 245.4996 L446.0961 245.4996 L440.8292 245.4996 L435.8668 245.4996 L429.7688 245.4996 L424.4564 245.4996 L418.1331 245.4996 L412.4289 245.4996 L406.0791 245.4996 L399.9666 245.4996 L393.544 245.4996 L387.6258 245.4996 L381.2418 245.4996 L374.6328 245.4996 L368.9157 245.4996 L362.7964 245.4996 L356.5528 245.4996 L350.5382 245.4996 L344.8216 245.4996 L338.6085 245.4996 L333.1589 245.4996 L327.4917 245.4996 L322.5007 245.4996 L317.2103 245.4996 L312.398 245.4996 L307.5461 245.4996 L302.9839 245.4996 L298.4042 245.4996 L294.1869 245.4996 L290.0726 245.4996 L286.1917 245.4996 L282.8009 245.4996 L279.1203 245.4996 L276.0132 245.4996 L272.8903 245.4996 L270.0822 245.4996 L267.1675 245.4996 L264.8127 245.4996 L262.3251 245.4996 L260.2246 245.4996 L258.1028 245.4996 L256.4148 245.4996 L254.6472 245.4996 L253.09 245.4996 L251.6748 245.4996 L250.3981 245.4996 L249.291 245.4996 L248.2185 245.4996 L247.31 245.4996 L246.4663 245.4996 L245.7959 245.4996 L245.1511 245.4996 L244.6216 245.4996 L244.173 245.4996 L243.7827 245.4996 L243.4881 245.4996 L243.2454 245.4996 L243.0404 245.4996 L242.9064 245.4996 L242.8146 245.4996 L242.7631 245.4996 L242.7488 245.4996 L242.7641 245.4996 L242.8063 245.4996 L242.8769 245.4996 L242.9575 245.4996 L243.068 245.4996 L243.1806 245.4996 L243.3011 245.4996 L243.4379 245.4996 L243.5801 245.4996 L243.7114 245.4996 L243.8508 245.4996 L243.9848 245.4996 L244.126 245.4996 L244.2434 245.4996 L244.371 245.4996 L244.483 245.4996 L244.5849 245.4996 L244.6772 245.4996 L244.7605 245.4996 L244.836 245.4996 L244.8932 245.4996 L244.9379 245.4996 L244.9723 245.4996 L244.9927 245.4996 L244.999 245.4996 L244.999 245.4996 L244.999 245.4996 L244.999 245.4996 L244.9927 243.0342 L244.9723 240.4176 L244.9379 237.7917 L244.8932 235.3304 L244.836 232.8307 L244.7605 230.0955 L244.6772 227.5049 L244.5849 224.9537 L244.483 222.3921 L244.371 219.7914 L244.2434 217.0081 L244.126 214.5693 L243.9848 211.7318 L243.8508 209.0949 L243.7114 206.3727 L243.5801 203.7897 L243.4379 200.9281 L243.3011 198.0536 L243.1806 195.3579 L243.068 192.6108 L242.9575 189.5398 L242.8769 186.8549 L242.8063 183.7861 L242.7641 180.8921 L242.7488 177.9512 L242.7631 175.1703 L242.8146 172.1209 L242.9064 169.0986 L243.0404 166.1213 L243.2454 162.8088 L243.4881 159.7879 L243.7827 156.8204 L244.173 153.5804 L244.6216 150.4625 L245.1511 147.3237 L245.7959 144.035 L246.4663 141.0516 L247.31 137.7505 L248.2185 134.6124 L249.291 131.322 L250.3981 128.2843 L251.6748 125.1332 L253.09 121.9865 L254.6472 118.8595 L256.4148 115.6516 L258.1028 112.8652 L260.2246 109.6786 L262.3251 106.8127 L264.8127 103.7289 L267.1675 101.0726 L270.0822 98.0857 L272.8903 95.4792 L276.0132 92.851 L279.1203 90.4839 L282.8009 87.9616 L286.1917 85.8784 L290.0726 83.7477 L294.1869 81.7555 L298.4042 79.972 L302.9839 78.3062 L307.5461 76.9054 L312.398 75.6784 L317.2103 74.7121 L322.5007 73.9213 L327.4917 73.4231 L333.1589 73.1364 L338.6085 73.1307 L344.8216 73.4374 L350.5382 74.0079 L356.5528 74.9024 L362.7964 76.1481 L368.9157 77.6829 L374.6328 79.4005 L381.2418 81.7335 L387.6258 84.3503 L393.544 87.1064 L399.9666 90.4731 L406.0791 94.06 L412.4289 98.2074 L418.1331 102.3269 L424.4564 107.3677 L429.7688 112.0258 L435.8668 117.9045 L440.8292 123.1603 L446.0961 129.269 L451.3187 135.9518 L456.2493 142.9414 L460.3833 149.4165 L464.7751 157.0548 L468.717 164.7544 L472.3273 172.7291 L475.4734 180.6573 L478.1761 188.4967 L480.7075 197.1294 L482.8369 205.9621 L484.5305 214.8662 L485.6759 222.8691 L486.5498 231.9011 L486.9973 241.4118 L486.9976 245.4996 L486.998 245.4996 L486.537 245.4996 L485.7584 245.4996 L484.4753 245.4996 L482.7564 245.4996 L480.7641 245.4996 L478.3766 245.4996 L475.3621 245.4996 L472.14 245.4996 L468.6399 245.4996 L464.8216 245.4996 L460.6583 245.4996 L455.9114 245.4996 L451.5301 245.4996 L446.2015 245.4996 L441.056 245.4996 L435.5777 245.4996 L430.2497 245.4996 L424.2287 245.4996 L418.0856 245.4996 L412.2648 245.4996 L406.2981 245.4996 L399.6133 245.4996 L393.7786 245.4996 L387.1447 245.4996 L380.9431 245.4996 L374.7147 245.4996 L368.9077 245.4996 L362.6481 245.4996 L356.5689 245.4996 L350.7133 245.4996 L344.3652 245.4996 L338.7378 245.4996 L333.3669 245.4996 L327.6858 245.4996 L322.4037 245.4996 L317.2715 245.4996 L312.0958 245.4996 L307.5793 245.4996 L302.7794 245.4996 L298.4075 245.4996 L294.0211 245.4996 L290.1487 245.4996 L286.308 245.4996 L282.6484 245.4996 L279.1816 245.4996 L275.7966 245.4996 L272.9937 245.4996 L269.9402 245.4996 L267.3285 245.4996 L264.656 245.4996 L262.4646 245.4996 L260.1185 245.4996 L258.1696 245.4996 L256.2935 245.4996 L254.6769 245.4996 L253.0267 245.4996 L251.7166 245.4996 L250.4216 245.4996 L249.2471 245.4996 L248.2193 245.4996 L247.271 245.4996 L246.4717 245.4996 L245.7548 245.4996 L245.158 245.4996 L244.6125 245.4996 L244.188 245.4996 L243.7955 245.4996 L243.4944 245.4996 L243.2284 245.4996 L243.0452 245.4996 L242.9067 245.4996 L242.8129 245.4996 L242.7631 245.4996 L242.7488 245.4996 L242.7655 245.4996 L242.8106 245.4996 L242.874 245.4996 L242.9629 245.4996 L243.0641 245.4996 L243.1838 245.4996 L243.3021 245.4996 L243.4432 245.4996 L243.5685 245.4996 L243.7187 245.4996 L243.8449 245.4996 L243.9821 245.4996 L244.1204 245.4996 L244.2524 245.4996 L244.3636 245.4996 L244.4817 245.4996 L244.5869 245.4996 L244.6821 245.4996 L244.7633 245.4996 L244.8311 245.4996 L244.8919 245.4996 L244.9396 245.4996 L244.9733 245.4996 L244.9916 245.4996 L244.999 245.4996 L244.999 245.4996 L244.999 245.4996 L244.999 245.4996 Z"
                  style="stroke:none; clip-path:url(#clipPath2);"/>
        </g>
        <g transform="translate(6,5)"
           style="stroke-linecap:butt; fill:blue; text-rendering:optimizeLegibility; image-rendering:optimizeQuality; color-rendering:optimizeQuality; font-family:'Times New Roman'; stroke-linejoin:round; stroke:blue; color-interpolation:linearRGB;">
            <path d="M244.999 245.4996 L244.9916 248.1646 L244.9733 250.4849 L244.9396 253.0976 L244.8919 255.7329 L244.8311 258.3628 L244.7633 260.8089 L244.6821 263.351 L244.5869 265.9918 L244.4817 268.6373 L244.3636 271.3738 L244.2524 273.7984 L244.1204 276.545 L243.9821 279.3224 L243.8449 282.0187 L243.7187 284.4848 L243.5685 287.4401 L243.4432 289.9638 L243.3021 292.9236 L243.1838 295.5657 L243.0641 298.4891 L242.9629 301.2971 L242.874 304.2526 L242.8106 306.9898 L242.7655 309.9671 L242.7488 313.0869 L242.7631 315.8251 L242.8129 318.8054 L242.9067 321.9088 L243.0452 324.9681 L243.2284 327.9491 L243.4944 331.2819 L243.7955 334.2956 L244.188 337.5316 L244.6125 340.4785 L245.158 343.7137 L245.7548 346.7686 L246.4717 349.97 L247.271 353.1052 L248.2193 356.3893 L249.2471 359.5501 L250.4216 362.776 L251.7166 365.9638 L253.0267 368.8786 L254.6769 372.1964 L256.2935 375.1375 L258.1696 378.2393 L260.1185 381.1688 L262.4646 384.3679 L264.656 387.085 L267.3285 390.0999 L269.9402 392.7751 L272.9937 395.6115 L275.7966 397.9745 L279.1816 400.5598 L282.6484 402.9388 L286.308 405.1885 L290.1487 407.2909 L294.0211 409.1685 L298.4075 411.0286 L302.7794 412.6244 L307.5793 414.1032 L312.0958 415.252 L317.2715 416.2979 L322.4037 417.066 L327.6858 417.5909 L333.3669 417.8679 L338.7378 417.8656 L344.3652 417.5956 L350.7133 416.9695 L356.5689 416.0941 L362.6481 414.8846 L368.9077 413.3186 L374.7147 411.5722 L380.9431 409.3794 L387.1447 406.8589 L393.7786 403.7769 L399.6133 400.7219 L406.2981 396.8036 L412.2648 392.9047 L418.0856 388.7083 L424.2287 383.8223 L430.2497 378.5314 L435.5777 373.3874 L441.056 367.5877 L446.2015 361.6021 L451.5301 354.7623 L455.9114 348.5607 L460.6583 341.1292 L464.8216 333.8588 L468.6399 326.4046 L472.14 318.7103 L475.3621 310.642 L478.3766 301.8718 L480.7641 293.6573 L482.7564 285.4092 L484.4753 276.4653 L485.7584 267.4386 L486.537 259.2739 L486.998 249.5563 L486.9973 241.4118 L486.5498 231.9011 L485.6759 222.8691 L484.5305 214.8662 L482.8369 205.9621 L480.7075 197.1294 L478.1761 188.4967 L475.4734 180.6573 L472.3273 172.7291 L468.717 164.7544 L464.7751 157.0548 L460.3833 149.4165 L456.2493 142.9414 L451.3187 135.9518 L446.0961 129.269 L440.8292 123.1603 L435.8668 117.9045 L429.7688 112.0258 L424.4564 107.3677 L418.1331 102.3269 L412.4289 98.2074 L406.0791 94.06 L399.9666 90.4731 L393.544 87.1064 L387.6258 84.3503 L381.2418 81.7335 L374.6328 79.4005 L368.9157 77.6829 L362.7964 76.1481 L356.5528 74.9024 L350.5382 74.0079 L344.8216 73.4374 L338.6085 73.1307 L333.1589 73.1364 L327.4917 73.4231 L322.5007 73.9213 L317.2103 74.7121 L312.398 75.6784 L307.5461 76.9054 L302.9839 78.3062 L298.4042 79.972 L294.1869 81.7555 L290.0726 83.7477 L286.1917 85.8784 L282.8009 87.9616 L279.1203 90.4839 L276.0132 92.851 L272.8903 95.4792 L270.0822 98.0857 L267.1675 101.0726 L264.8127 103.7289 L262.3251 106.8127 L260.2246 109.6786 L258.1028 112.8652 L256.4148 115.6516 L254.6472 118.8595 L253.09 121.9865 L251.6748 125.1332 L250.3981 128.2843 L249.291 131.322 L248.2185 134.6124 L247.31 137.7505 L246.4663 141.0516 L245.7959 144.035 L245.1511 147.3237 L244.6216 150.4625 L244.173 153.5804 L243.7827 156.8204 L243.4881 159.7879 L243.2454 162.8088 L243.0404 166.1213 L242.9064 169.0986 L242.8146 172.1209 L242.7631 175.1703 L242.7488 177.9512 L242.7641 180.8921 L242.8063 183.7861 L242.8769 186.8549 L242.9575 189.5398 L243.068 192.6108 L243.1806 195.3579 L243.3011 198.0536 L243.4379 200.9281 L243.5801 203.7897 L243.7114 206.3727 L243.8508 209.0949 L243.9848 211.7318 L244.126 214.5693 L244.2434 217.0081 L244.371 219.7914 L244.483 222.3921 L244.5849 224.9537 L244.6772 227.5049 L244.7605 230.0955 L244.836 232.8307 L244.8932 235.3304 L244.9379 237.7917 L244.9723 240.4176 L244.9927 243.0342 L244.999 245.4996"
                  style="fill:none; clip-path:url(#clipPath3);"/>
        </g>
        <g transform="translate(6,5)"
           style="stroke-linecap:butt; fill:blue; text-rendering:optimizeLegibility; image-rendering:optimizeQuality; color-rendering:optimizeQuality; font-family:'Times New Roman'; stroke-linejoin:round; stroke:blue; color-interpolation:linearRGB;">
            <path d="M244.999 245.4996 L245.0063 242.8347 L245.0247 240.5144 L245.0584 237.9017 L245.1061 235.2664 L245.1669 232.6365 L245.2346 230.1904 L245.3159 227.6483 L245.411 225.0075 L245.5163 222.3621 L245.6343 219.6254 L245.7455 217.2009 L245.8776 214.4543 L246.0159 211.6768 L246.153 208.9806 L246.2793 206.5145 L246.4295 203.5592 L246.5548 201.0355 L246.6959 198.0757 L246.8141 195.4336 L246.9339 192.5102 L247.0351 189.7021 L247.124 186.7467 L247.1874 184.0095 L247.2325 181.0321 L247.2492 177.9123 L247.2349 175.1742 L247.1851 172.1939 L247.0913 169.0905 L246.9527 166.0312 L246.7696 163.0502 L246.5035 159.7174 L246.2025 156.7037 L245.81 153.4677 L245.3854 150.5208 L244.84 147.2855 L244.2432 144.2307 L243.5263 141.0293 L242.7269 137.8941 L241.7787 134.61 L240.7508 131.4492 L239.5763 128.2233 L238.2814 125.0355 L236.9713 122.1206 L235.321 118.8029 L233.7045 115.8618 L231.8284 112.7599 L229.8795 109.8305 L227.5334 106.6314 L225.3419 103.9143 L222.6694 100.8993 L220.0577 98.2242 L217.0042 95.3878 L214.2013 93.0248 L210.8164 90.4395 L207.3495 88.0605 L203.69 85.8108 L199.8493 83.7084 L195.9769 81.8308 L191.5905 79.9707 L187.2185 78.3749 L182.4187 76.8961 L177.9022 75.7473 L172.7264 74.7014 L167.5943 73.9333 L162.3121 73.4084 L156.631 73.1314 L151.2601 73.1337 L145.6328 73.4037 L139.2847 74.0297 L133.4291 74.9052 L127.3499 76.1147 L121.0902 77.6807 L115.2833 79.4271 L109.0548 81.6198 L102.8533 84.1404 L96.2193 87.2224 L90.3847 90.2774 L83.6999 94.1957 L77.7331 98.0946 L71.9123 102.291 L65.7693 107.1769 L59.7483 112.4679 L54.4203 117.6119 L48.942 123.4116 L43.7965 129.3972 L38.4679 136.237 L34.0865 142.4386 L29.3397 149.8701 L25.1764 157.1405 L21.3581 164.5946 L17.858 172.289 L14.6359 180.3572 L11.6214 189.1274 L9.2339 197.342 L7.2416 205.5901 L5.5227 214.534 L4.2396 223.5607 L3.461 231.7254 L3 241.443 L3.0007 249.5875 L3.4481 259.0982 L4.3221 268.1302 L5.4675 276.1331 L7.161 285.0372 L9.2905 293.8699 L11.8219 302.5026 L14.5245 310.3419 L17.6707 318.2702 L21.281 326.2448 L25.2228 333.9444 L29.6147 341.5828 L33.7487 348.0579 L38.6793 355.0475 L43.9018 361.7303 L49.1688 367.839 L54.1312 373.0948 L60.2291 378.9735 L65.5416 383.6316 L71.8648 388.6724 L77.5691 392.7919 L83.9188 396.9393 L90.0313 400.5262 L96.454 403.8929 L102.3721 406.649 L108.7561 409.2658 L115.3652 411.5988 L121.0822 413.3163 L127.2015 414.8512 L133.4452 416.0969 L139.4598 416.9913 L145.1764 417.5619 L151.3895 417.8686 L156.8391 417.8629 L162.5062 417.5762 L167.4972 417.078 L172.7877 416.2872 L177.5999 415.3209 L182.4518 414.0939 L187.0141 412.693 L191.5937 411.0273 L195.811 409.2438 L199.9254 407.2516 L203.8062 405.1208 L207.1971 403.0377 L210.8776 400.5154 L213.9848 398.1483 L217.1077 395.5201 L219.9158 392.9136 L222.8304 389.9267 L225.1852 387.2704 L227.6728 384.1866 L229.7734 381.3207 L231.8951 378.1341 L233.5831 375.3477 L235.3507 372.1398 L236.9079 369.0128 L238.3232 365.8661 L239.5998 362.715 L240.707 359.6773 L241.7794 356.3869 L242.6879 353.2487 L243.5316 349.9477 L244.2021 346.9643 L244.8469 343.6756 L245.3763 340.5367 L245.8249 337.4189 L246.2153 334.1788 L246.5099 331.2114 L246.7526 328.1905 L246.9575 324.8779 L247.0916 321.9007 L247.1834 318.8784 L247.2348 315.829 L247.2492 313.048 L247.2339 310.1072 L247.1917 307.2132 L247.1211 304.1444 L247.0405 301.4595 L246.9299 298.3885 L246.8174 295.6414 L246.6969 292.9457 L246.56 290.0711 L246.4178 287.2095 L246.2865 284.6266 L246.1472 281.9044 L246.0132 279.2675 L245.8719 276.43 L245.7546 273.9912 L245.6269 271.2078 L245.515 268.6072 L245.4131 266.0456 L245.3208 263.4944 L245.2375 260.9037 L245.1619 258.1686 L245.1047 255.6689 L245.0601 253.2076 L245.0257 250.5817 L245.0053 247.9651 L244.999 245.4996"
                  style="fill:none; clip-path:url(#clipPath3);"/>
        </g>
        <g transform="translate(6,5)"
           style="stroke-linecap:butt; fill:red; text-rendering:optimizeLegibility; image-rendering:optimizeQuality; color-rendering:optimizeQuality; font-family:'Times New Roman'; stroke-linejoin:round; stroke:red; color-interpolation:linearRGB;">
            <path d="M292.5916 434.2701 L292.5657 432.6982 L292.5009 431.3319 L292.3811 429.7983 L292.2105 428.2593 L291.9911 426.7339 L291.7437 425.3266 L291.4431 423.8781 L291.085 422.3905 L290.6807 420.9199 L290.2158 419.4216 L289.7656 418.1151 L289.2137 416.6608 L288.612 415.2194 L287.9877 413.8497 L287.3834 412.6235 L286.6195 411.1889 L285.9343 409.9945 L285.0942 408.6309 L284.3126 407.4479 L283.415 406.1776 L282.5221 404.9957 L281.5517 403.7928 L280.6266 402.7164 L279.5933 401.5869 L278.4821 400.4495 L277.4843 399.4901 L276.3758 398.487 L275.1981 397.4877 L274.0151 396.5476 L272.8427 395.6743 L271.5103 394.7472 L270.2866 393.9534 L268.9539 393.1476 L267.7241 392.4555 L266.3568 391.741 L265.0497 391.1094 L263.6635 390.4922 L262.2899 389.9317 L260.8339 389.3912 L259.4156 388.9157 L257.9505 388.4758 L256.4843 388.0864 L255.1267 387.7698 L253.5601 387.4561 L252.1507 387.2202 L250.6409 387.0154 L249.1904 386.8647 L247.5753 386.7495 L246.1742 386.6943 L244.5828 386.6816 L243.1328 386.7164 L241.5487 386.805 L240.185 386.9239 L238.6367 387.1069 L237.1476 387.3318 L235.6674 387.6035 L234.2019 387.9206 L232.804 388.2686 L231.3055 388.6922 L229.891 389.1413 L228.4181 389.6613 L227.1002 390.1736 L225.6621 390.7849 L224.3041 391.4145 L222.9699 392.0847 L221.5994 392.8291 L220.3594 393.5541 L219.1127 394.3351 L217.7649 395.2417 L216.572 396.1017 L215.3801 397.019 L214.1983 397.99 L213.14 398.9156 L212.0425 399.9362 L210.9857 400.9827 L209.8921 402.1381 L208.9595 403.1875 L207.9226 404.4319 L207.0237 405.5846 L206.1695 406.7518 L205.291 408.0352 L204.4517 409.3519 L203.7258 410.5734 L202.9954 411.8936 L202.3232 413.2036 L201.6407 414.6465 L201.0895 415.9128 L200.5021 417.3863 L199.995 418.7886 L199.5363 420.1923 L199.121 421.6107 L198.7431 423.0699 L198.3932 424.629 L198.1185 426.068 L197.8909 427.4962 L197.6957 429.0298 L197.5507 430.5655 L197.463 431.9473 L197.4112 433.5865 L197.4113 434.9589 L197.4616 436.5632 L197.56 438.092 L197.6895 439.4537 L197.8817 440.9799 L198.125 442.5092 L198.4163 444.0225 L198.7301 445.4164 L199.099 446.8492 L199.5271 448.3181 L200.0006 449.7679 L200.5359 451.2426 L201.0474 452.5262 L201.6675 453.9528 L202.3368 455.3641 L203.0253 456.7027 L203.6869 457.8989 L204.5179 459.2958 L205.2589 460.4563 L206.1626 461.7787 L206.9993 462.9233 L207.9561 464.1498 L208.9039 465.2881 L209.9302 466.4437 L210.9052 467.475 L211.9908 468.5543 L213.1547 469.6378 L214.1968 470.549 L215.3515 471.4985 L216.5752 472.4409 L217.8013 473.3239 L219.0137 474.1408 L220.3886 475.0037 L221.6485 475.7387 L223.0178 476.4805 L224.279 477.1136 L225.6787 477.7626 L227.0142 478.3316 L228.428 478.8825 L229.8266 479.3773 L231.3066 479.8483 L232.7458 480.2561 L234.2301 480.6261 L235.7131 480.9458 L237.0842 481.1977 L238.6638 481.4369 L240.0828 481.6058 L241.6006 481.7389 L243.0566 481.8208 L244.6754 481.8593 L246.0775 481.8482 L247.6678 481.7855 L249.1145 481.6822 L250.6926 481.5186 L252.0492 481.3353 L253.5871 481.0792 L255.0638 480.784 L256.5295 480.4426 L257.9784 480.0564 L259.3582 479.6427 L260.835 479.1487 L262.2267 478.6331 L263.6732 478.0439 L264.9655 477.4698 L266.373 476.7911 L267.6996 476.0979 L269.0007 475.3653 L270.3343 474.5568 L271.5387 473.7739 L272.747 472.9348 L274.0503 471.9655 L275.2012 471.0499 L276.3483 470.0773 L277.4828 469.0514 L278.4961 468.0768 L279.544 467.0053 L280.5501 465.91 L281.5878 464.7041 L282.4696 463.6117 L283.4465 462.3196 L284.2898 461.1256 L285.0878 459.9194 L285.9045 458.5958 L286.6806 457.2408 L287.3477 455.9864 L288.0149 454.6331 L288.6243 453.2926 L289.2377 451.8191 L289.7283 450.528 L290.2453 449.0284 L290.6855 447.6037 L291.0772 446.1799 L291.4249 444.7434 L291.7333 443.2679 L292.009 441.6941 L292.2152 440.2436 L292.3749 438.8063 L292.4973 437.2652 L292.5694 435.7243 L292.5916 434.2701"
                  style="fill:none; clip-path:url(#clipPath3);"/>
        </g>
        <g transform="translate(6,5)"
           style="stroke-linecap:butt; fill:lime; text-rendering:optimizeLegibility; image-rendering:optimizeQuality; color-rendering:optimizeQuality; font-family:'Times New Roman'; stroke-linejoin:round; stroke:lime; color-interpolation:linearRGB;">
            <path d="M292.5916 56.7292 L292.5657 55.1573 L292.5009 53.791 L292.3811 52.2574 L292.2105 50.7184 L291.9911 49.193 L291.7437 47.7857 L291.4431 46.3371 L291.085 44.8496 L290.6807 43.379 L290.2158 41.8807 L289.7656 40.5742 L289.2137 39.1198 L288.612 37.6784 L287.9877 36.3088 L287.3834 35.0826 L286.6195 33.648 L285.9343 32.4536 L285.0942 31.0899 L284.3126 29.907 L283.415 28.6366 L282.5221 27.4548 L281.5517 26.2519 L280.6266 25.1755 L279.5933 24.046 L278.4821 22.9086 L277.4843 21.9492 L276.3758 20.946 L275.1981 19.9468 L274.0151 19.0067 L272.8427 18.1334 L271.5103 17.2063 L270.2866 16.4125 L268.9539 15.6068 L267.7241 14.9146 L266.3568 14.2001 L265.0497 13.5685 L263.6635 12.9513 L262.2899 12.3908 L260.8339 11.8503 L259.4156 11.3748 L257.9505 10.9349 L256.4843 10.5454 L255.1267 10.2289 L253.5601 9.9152 L252.1507 9.6793 L250.6409 9.4745 L249.1904 9.3238 L247.5753 9.2086 L246.1742 9.1534 L244.5828 9.1407 L243.1328 9.1754 L241.5487 9.2641 L240.185 9.3829 L238.6367 9.566 L237.1476 9.7909 L235.6674 10.0626 L234.2019 10.3797 L232.804 10.7277 L231.3055 11.1512 L229.891 11.6004 L228.4181 12.1204 L227.1002 12.6327 L225.6621 13.244 L224.3041 13.8736 L222.9699 14.5438 L221.5994 15.2882 L220.3594 16.0133 L219.1127 16.7942 L217.7649 17.7008 L216.572 18.5608 L215.3801 19.4781 L214.1983 20.449 L213.14 21.3747 L212.0425 22.3953 L210.9857 23.4417 L209.8921 24.5971 L208.9595 25.6466 L207.9226 26.891 L207.0237 28.0437 L206.1695 29.2108 L205.291 30.4943 L204.4517 31.811 L203.7258 33.0325 L202.9954 34.3526 L202.3232 35.6627 L201.6407 37.1056 L201.0895 38.3719 L200.5021 39.8454 L199.995 41.2477 L199.5363 42.6514 L199.121 44.0698 L198.7431 45.5291 L198.3932 47.0881 L198.1185 48.5271 L197.8909 49.9553 L197.6957 51.4889 L197.5507 53.0246 L197.463 54.4063 L197.4112 56.0456 L197.4113 57.418 L197.4616 59.0223 L197.56 60.5511 L197.6895 61.9128 L197.8817 63.439 L198.125 64.9683 L198.4163 66.4816 L198.7301 67.8755 L199.099 69.3083 L199.5271 70.7772 L200.0006 72.227 L200.5359 73.7017 L201.0474 74.9853 L201.6675 76.4119 L202.3368 77.8232 L203.0253 79.1618 L203.6869 80.358 L204.5179 81.7549 L205.2589 82.9154 L206.1626 84.2378 L206.9993 85.3824 L207.9561 86.6089 L208.9039 87.7471 L209.9302 88.9028 L210.9052 89.9341 L211.9908 91.0134 L213.1547 92.0969 L214.1968 93.0081 L215.3515 93.9576 L216.5752 94.9 L217.8013 95.783 L219.0137 96.5999 L220.3886 97.4628 L221.6485 98.1978 L223.0178 98.9395 L224.279 99.5727 L225.6787 100.2217 L227.0142 100.7907 L228.428 101.3416 L229.8266 101.8364 L231.3066 102.3074 L232.7458 102.7152 L234.2301 103.0852 L235.7131 103.4049 L237.0842 103.6568 L238.6638 103.896 L240.0828 104.0649 L241.6006 104.198 L243.0566 104.2798 L244.6754 104.3184 L246.0775 104.3073 L247.6678 104.2446 L249.1145 104.1412 L250.6926 103.9777 L252.0492 103.7944 L253.5871 103.5383 L255.0638 103.2431 L256.5295 102.9017 L257.9784 102.5155 L259.3582 102.1018 L260.835 101.6077 L262.2267 101.0922 L263.6732 100.503 L264.9655 99.9289 L266.373 99.2502 L267.6996 98.557 L269.0007 97.8244 L270.3343 97.0159 L271.5387 96.233 L272.747 95.3939 L274.0503 94.4246 L275.2012 93.509 L276.3483 92.5363 L277.4828 91.5105 L278.4961 90.5359 L279.544 89.4644 L280.5501 88.3691 L281.5878 87.1632 L282.4696 86.0708 L283.4465 84.7787 L284.2898 83.5847 L285.0878 82.3784 L285.9045 81.0549 L286.6806 79.6999 L287.3477 78.4455 L288.0149 77.0922 L288.6243 75.7517 L289.2377 74.2782 L289.7283 72.9872 L290.2453 71.4875 L290.6855 70.0628 L291.0772 68.6389 L291.4249 67.2025 L291.7333 65.727 L292.009 64.1532 L292.2152 62.7027 L292.3749 61.2654 L292.4973 59.7243 L292.5694 58.1834 L292.5916 56.7292"
                  style="fill:none; clip-path:url(#clipPath3);"/>
        </g>
    </g>
</svg>
